<svg width="18" height="17" viewBox="0 0 18 17" fill="none" xmlns="http://www.w3.org/2000/svg">
<path d="M13.0859 0L17.7576 4.16667V15.84C17.7574 16.0593 17.6595 16.2696 17.4856 16.4246C17.3116 16.5796 17.0757 16.6667 16.8298 16.6667H1.86726C1.62188 16.6651 1.38702 16.5776 1.21342 16.4229C1.03982 16.2682 0.94141 16.0588 0.939453 15.84V0.826667C0.939453 0.37 1.35524 0 1.86726 0H13.0859Z" fill="#840B55"/>
<path d="M3.74268 12.3334V11.3412L6.7848 7.70447V7.6615H3.84786V6.33337H8.86007V7.41541L6.00404 10.9623V11.0052H8.96525V12.3334H3.74268Z" fill="white"/>
<path d="M16.076 6.33337L13.9036 12.3334H11.9619L9.7895 6.33337H11.6099L12.9004 10.6263H12.9651L14.2515 6.33337H16.076Z" fill="white"/>
</svg>
