<?xml version="1.0" standalone="no"?>
<!DOCTYPE svg PUBLIC "-//W3C//DTD SVG 20010904//EN"
 "http://www.w3.org/TR/2001/REC-SVG-20010904/DTD/svg10.dtd">
<svg version="1.0" xmlns="http://www.w3.org/2000/svg"
 width="1968.000000pt" height="1968.000000pt" viewBox="0 0 1968.000000 1968.000000"
 preserveAspectRatio="xMidYMid meet">
<metadata>
Created by potrace 1.14, written by Peter Selinger 2001-2017
</metadata>
<g transform="translate(0.000000,1968.000000) scale(0.100000,-0.100000)"
fill="#000000" stroke="none">
<path d="M5454 17463 l1 -2218 4427 -3 4427 -2 0 2220 0 2220 -4427 0 -4428 0
0 -2217z"/>
<path d="M9950 13334 c-13 -33 -15 -34 -22 -13 -11 28 -19 20 -56 -56 -16 -33
-60 -124 -98 -202 -74 -151 -68 -145 -154 -157 -84 -11 -136 -19 -155 -23 -11
-2 -38 -6 -60 -8 -104 -10 -151 -18 -165 -29 -31 -23 -61 -36 -71 -31 -5 4
-23 -1 -41 -9 -17 -9 -37 -16 -44 -16 -7 0 -14 -4 -16 -8 -1 -5 -30 -22 -63
-39 -176 -90 -211 -109 -216 -116 -3 -4 -53 17 -110 47 -81 42 -256 131 -322
164 -4 2 -6 -2 -5 -10 2 -8 -4 -12 -15 -10 -14 2 -17 -1 -13 -15 7 -23 15 -67
22 -118 6 -47 12 -80 14 -80 1 0 4 -13 5 -30 2 -16 8 -53 14 -82 28 -141 31
-132 -49 -209 -230 -222 -290 -284 -248 -258 7 5 9 0 6 -14 -4 -15 -1 -21 11
-20 9 0 43 -5 76 -10 33 -6 80 -13 105 -16 25 -4 56 -8 70 -11 14 -2 45 -6 70
-9 115 -13 131 -18 143 -45 6 -14 18 -37 26 -50 9 -13 16 -29 17 -35 4 -21
144 -291 144 -278 0 21 16 13 28 -13 7 -14 12 -30 12 -35 0 -5 -226 -9 -550
-9 -352 0 -557 -4 -569 -10 -18 -10 -19 -51 -15 -1653 3 -1665 4 -1777 27
-1953 12 -89 20 -142 24 -160 2 -11 6 -31 7 -45 2 -14 6 -32 10 -40 3 -8 8
-28 11 -45 3 -16 7 -34 9 -40 1 -5 8 -30 15 -55 7 -25 15 -52 18 -60 4 -8 7
-18 8 -22 2 -5 4 -10 5 -13 1 -3 3 -8 5 -12 1 -5 7 -21 13 -36 7 -16 12 -30
12 -32 0 -7 78 -166 98 -200 37 -63 75 -121 91 -136 9 -9 25 -29 36 -44 29
-41 143 -155 200 -200 28 -22 52 -43 55 -46 3 -3 51 -33 106 -67 155 -93 348
-168 543 -212 133 -29 163 -35 231 -45 25 -3 55 -8 67 -11 33 -6 151 -17 200
-18 24 -1 43 -3 43 -6 0 -8 197 -14 470 -13 216 0 465 7 465 13 0 1 20 3 45 5
50 3 152 14 190 20 14 2 56 9 93 15 59 9 119 21 227 46 42 10 43 10 90 23 25
8 50 14 55 16 6 1 17 5 25 8 8 3 38 13 65 22 146 50 371 167 469 245 57 46
131 117 208 200 33 37 122 176 159 250 41 82 116 295 123 351 3 19 6 36 7 39
1 3 3 10 4 15 2 6 4 12 5 15 1 3 4 19 5 35 2 17 4 31 5 33 1 1 4 11 5 22 1 11
3 21 5 23 1 1 3 18 5 37 2 19 6 58 9 85 3 28 8 88 12 135 4 47 8 858 9 1803
l1 1717 -40 0 c-23 0 -268 1 -545 1 -278 0 -507 2 -511 4 -4 2 41 101 99 220
78 157 111 216 126 220 11 2 36 7 55 9 49 7 109 16 150 22 73 11 130 19 214
28 27 4 52 8 55 11 2 3 -75 83 -172 179 l-177 173 6 38 c3 21 7 47 10 58 2 12
6 37 9 57 3 20 8 47 11 60 3 14 7 36 9 50 5 35 14 90 20 120 3 14 7 40 10 59
3 19 8 38 11 43 8 12 -3 10 -37 -8 -17 -8 -38 -13 -46 -10 -14 6 -171 -69
-185 -89 -4 -5 -8 -6 -8 -1 0 5 -6 4 -12 -2 -7 -5 -51 -30 -98 -54 l-86 -45
-59 32 c-66 35 -260 137 -315 166 -22 13 -38 15 -44 9 -16 -16 -30 -12 -16 5
10 12 10 15 -1 16 -8 0 -23 2 -34 4 -11 2 -47 7 -80 11 -33 3 -69 8 -80 11
-11 2 -38 6 -60 9 -22 2 -56 6 -75 9 -19 4 -52 8 -73 11 -21 3 -46 7 -55 9 -9
2 -20 4 -24 4 -6 1 -40 56 -43 71 -3 14 -31 68 -48 93 -10 15 -16 27 -13 27 4
0 -120 249 -128 257 -1 2 -9 -13 -16 -33z m114 -238 c47 -95 86 -176 86 -181
0 -28 -43 41 -115 186 -75 150 -89 189 -64 174 4 -3 46 -83 93 -179z m-772
-303 c19 -21 90 -91 157 -156 135 -130 126 -112 106 -220 -2 -15 -10 -54 -15
-87 -19 -104 -21 -113 -26 -122 -3 -4 0 -8 7 -8 8 0 8 -4 1 -12 -6 -7 -13 -33
-17 -58 -3 -25 -8 -53 -11 -62 -6 -21 6 -24 24 -6 9 9 12 5 12 -20 0 -18 -4
-32 -9 -32 -4 0 -87 77 -184 171 -121 118 -174 176 -172 189 2 9 6 33 9 51 3
19 9 48 12 64 3 17 7 37 8 45 1 8 6 42 11 75 5 33 8 63 7 68 -1 4 1 7 6 7 4 0
7 10 8 23 0 12 4 40 8 62 4 22 7 46 8 53 2 20 13 14 50 -25z m1318 29 c0 -5
-221 -222 -226 -222 -1 0 -22 -20 -47 -45 -45 -46 -50 -66 -34 -120 3 -11 8
-38 12 -60 5 -37 20 -122 29 -171 2 -12 7 -39 10 -60 4 -22 9 -47 12 -56 3
-10 2 -18 -3 -18 -18 0 -30 17 -37 50 -3 19 -8 46 -11 60 -3 14 -7 39 -9 55
-2 17 -7 43 -11 59 -5 16 -9 43 -10 60 -2 17 -4 31 -5 31 -3 0 -9 36 -11 70
-2 17 -7 35 -12 42 -9 12 13 35 229 244 49 47 97 86 107 86 9 0 17 -3 17 -5z
m63 -59 c4 -27 9 -59 11 -73 25 -124 54 -325 49 -334 -4 -6 -36 -38 -71 -71
-35 -33 -106 -102 -158 -153 -52 -51 -95 -87 -96 -80 -1 16 -5 31 -8 38 -1 3
-4 14 -5 25 -2 17 -18 106 -40 228 -3 15 -10 55 -16 89 l-11 62 163 158 c90
87 166 158 169 158 4 0 10 -21 13 -47z m-1478 -10 c-3 -16 -7 -38 -9 -49 -2
-12 -7 -39 -10 -60 -4 -22 -13 -75 -22 -119 -8 -44 -17 -98 -20 -120 -3 -22
-7 -45 -9 -52 -2 -7 0 -15 5 -18 6 -4 10 -11 10 -16 0 -5 -12 2 -26 16 -26 26
-27 40 -10 121 2 12 7 37 10 55 3 19 8 51 11 73 4 21 8 46 10 55 1 9 6 36 10
61 4 28 15 52 28 62 28 23 28 23 22 -9z m2335 -13 c-4 -22 -5 -40 -3 -40 2 0
1 -5 -3 -12 -4 -7 -9 -25 -11 -42 -2 -16 -5 -41 -8 -55 -3 -14 -8 -44 -11 -66
-3 -22 -8 -47 -10 -55 -3 -8 -8 -26 -10 -40 -2 -14 -7 -40 -10 -58 -3 -20 0
-40 8 -50 9 -12 5 -11 -12 3 -31 25 -40 37 -34 47 3 4 7 26 9 49 2 23 7 49 9
58 3 9 8 32 11 51 3 19 10 61 16 92 5 32 12 70 15 85 9 49 15 62 32 66 9 3 18
5 18 6 1 0 -2 -17 -6 -39z m-2236 -568 c74 -73 138 -138 142 -145 9 -16 16
-22 -145 136 -78 76 -141 141 -141 144 0 4 2 4 4 2 3 -2 65 -64 140 -137z
m2203 116 c-3 -8 -6 -5 -6 6 -1 11 2 17 5 13 3 -3 4 -12 1 -19z m27 -14 c3 -8
2 -12 -4 -9 -6 3 -10 10 -10 16 0 14 7 11 14 -7z m-1594 -13 c0 -5 -17 -18
-37 -28 -147 -75 -212 -109 -235 -126 -16 -10 -28 -16 -28 -12 0 3 -10 -1 -22
-9 -28 -20 -39 -20 -32 -1 4 8 12 15 20 15 8 0 14 5 14 10 0 6 3 9 8 8 9 -2
35 11 177 87 125 67 135 71 135 56z m1638 -31 c12 -19 11 -20 -8 -8 -20 13
-27 28 -12 28 4 0 13 -9 20 -20z m-1556 -18 c18 -10 94 -51 168 -90 74 -39
154 -81 178 -94 34 -19 44 -20 51 -9 6 9 11 10 15 2 4 -6 2 -11 -5 -11 -15 0
-3 -13 14 -16 7 -1 37 -5 67 -9 30 -4 62 -8 70 -10 8 -1 38 -5 65 -9 28 -3 59
-8 70 -10 11 -2 40 -7 65 -10 25 -4 54 -8 65 -10 11 -3 28 -5 38 -5 9 -1 17
-8 17 -16 0 -8 5 -15 10 -15 6 0 10 -5 10 -11 0 -7 26 -64 57 -128 32 -64 56
-118 54 -120 -1 -2 1 -7 6 -10 5 -3 17 -25 27 -49 12 -26 24 -41 32 -38 10 4
44 -43 44 -60 0 -2 -522 -4 -1160 -4 -1050 0 -1159 2 -1153 16 3 9 52 110 109
225 102 207 104 209 136 211 18 0 38 2 43 3 6 2 15 4 20 5 6 1 13 2 16 2 4 -1
35 3 70 9 115 18 139 22 229 34 66 9 101 22 193 71 45 25 99 52 120 60 20 9
37 20 37 24 0 5 13 11 29 15 16 3 35 13 42 21 6 8 20 14 30 14 11 0 19 4 19 8
0 7 42 28 62 31 4 1 22 -7 40 -17z m1708 -140 c0 -4 -29 23 -65 58 -36 35 -65
68 -65 72 0 4 29 -23 65 -59 36 -36 65 -68 65 -71z m50 -41 c12 -12 10 -11 -9
0 -14 9 -27 22 -29 30 -3 11 -2 11 9 -1 8 -8 21 -21 29 -29z m-2623 -47 c-3
-3 -12 -4 -19 -1 -8 3 -5 6 6 6 11 1 17 -2 13 -5z m2370 0 c-3 -3 -12 -4 -19
-1 -8 3 -5 6 6 6 11 1 17 -2 13 -5z m-2420 -10 c-3 -3 -12 -4 -19 -1 -8 3 -5
6 6 6 11 1 17 -2 13 -5z m-161 -148 c-36 -75 -66 -138 -66 -142 0 -3 -9 -18
-19 -33 -11 -15 -23 -39 -26 -54 -4 -15 -11 -27 -17 -27 -5 0 -6 -5 -2 -12 4
-6 3 -8 -3 -5 -28 17 -17 53 67 226 60 120 95 181 107 183 10 3 20 3 21 2 2
-1 -26 -64 -62 -138z m2396 127 c-5 -10 -35 -72 -68 -138 -32 -66 -62 -121
-66 -123 -5 -2 -8 -9 -8 -16 0 -7 -11 -34 -24 -59 -14 -25 -22 -48 -19 -51 4
-3 2 -6 -4 -6 -5 0 -14 9 -19 21 -13 29 160 376 190 382 12 2 22 5 24 6 1 0
-1 -7 -6 -16z m860 -1520 c-1 -544 -1 -1104 -2 -1246 0 -202 -3 -258 -12 -254
-10 3 -13 261 -13 1243 0 1148 2 1270 24 1249 2 -3 3 -449 3 -992z m-6 -2030
c-2 -269 -7 -508 -10 -533 -6 -44 -15 -115 -21 -155 -2 -11 -6 -42 -10 -70 -4
-27 -9 -53 -11 -56 -2 -3 -6 -21 -9 -40 -9 -43 -13 -63 -16 -69 -1 -3 -3 -9
-4 -15 -2 -20 -38 -121 -58 -165 -23 -51 -21 -46 -31 -82 -5 -16 -11 -28 -15
-28 -4 0 -15 -20 -25 -45 -11 -25 -22 -45 -26 -45 -4 0 -13 -13 -20 -30 -7
-16 -16 -30 -21 -30 -5 0 -9 -4 -9 -10 0 -10 -26 -43 -72 -92 -15 -15 -25 -28
-22 -28 5 0 -51 -54 -98 -95 -13 -10 -52 -41 -88 -67 -36 -27 -69 -52 -75 -56
-5 -4 -39 -24 -75 -42 -36 -19 -66 -38 -68 -42 -2 -5 -10 -8 -19 -8 -23 0 3
20 78 59 35 19 66 37 69 40 3 4 30 24 60 46 106 77 179 150 283 286 20 25 36
52 49 79 7 14 15 27 18 30 9 8 51 99 48 103 -2 1 4 14 13 27 34 55 100 275
113 380 3 25 8 56 11 70 25 123 37 360 40 825 1 187 3 341 4 343 0 1 6 2 12 2
7 0 9 -145 5 -487z m-836 -1811 c0 -5 -16 -13 -35 -19 -19 -6 -35 -9 -35 -7 0
3 49 27 68 33 1 1 2 -3 2 -7z m-90 -42 c-8 -5 -19 -10 -25 -10 -5 0 -3 5 5 10
8 5 20 10 25 10 6 0 3 -5 -5 -10z m-40 -14 c0 -2 -7 -7 -16 -10 -8 -3 -12 -2
-9 4 6 10 25 14 25 6z"/>
<path d="M5753 10140 c-18 -4 -33 -5 -33 -3 0 2 -13 -5 -29 -16 -26 -19 -49
-70 -43 -95 6 -20 -29 -53 -68 -66 -23 -8 -48 -24 -56 -35 -15 -23 -28 -91
-27 -141 0 -27 37 -119 53 -134 3 -3 6 -27 5 -55 -1 -93 10 -117 73 -155 48
-29 66 -34 119 -34 35 1 63 -3 63 -6 0 -4 -9 -19 -21 -33 -15 -20 -18 -31 -10
-44 28 -53 177 -141 232 -138 38 2 84 19 93 33 3 6 14 9 24 7 9 -2 23 -4 30
-4 7 -1 11 -5 8 -9 -3 -5 -7 -21 -10 -36 -4 -24 1 -31 45 -59 28 -17 58 -32
67 -34 94 -16 131 -18 164 -10 21 6 29 2 42 -18 9 -14 21 -25 27 -25 6 0 23
-9 39 -20 15 -11 30 -17 33 -14 3 3 35 7 70 10 65 3 65 3 80 -29 26 -54 25
-60 -11 -62 -47 -2 -66 -25 -64 -77 l2 -43 -21 25 c-18 22 -19 22 -10 3 6 -12
16 -25 21 -28 15 -9 2 -25 -19 -25 -16 0 -71 58 -71 74 0 3 -18 24 -40 48 -22
24 -40 47 -40 51 0 4 -9 3 -20 -3 -14 -8 -20 -8 -20 0 0 8 -14 10 -42 6 -81
-11 -93 -16 -115 -41 -18 -21 -20 -30 -12 -57 11 -41 12 -38 -7 -38 -9 0 -28
8 -42 19 -15 10 -34 21 -42 25 -8 3 -1 5 17 3 18 -2 29 1 26 6 -5 8 -83 5
-137 -6 -55 -11 -123 -136 -117 -218 1 -19 93 -81 125 -87 12 -1 29 -4 38 -5
10 -2 21 -6 24 -10 4 -4 22 -7 39 -7 17 0 35 -3 39 -7 4 -4 19 -9 34 -11 15
-2 47 -15 72 -29 l44 -26 -30 -11 c-45 -16 -64 -39 -58 -72 9 -61 15 -74 54
-123 44 -56 135 -109 183 -107 32 2 36 -10 6 -19 -25 -8 -44 -52 -29 -70 8 -9
3 -14 -20 -19 -25 -4 -35 -15 -51 -51 -11 -25 -23 -45 -27 -45 -4 0 -22 14
-41 30 -18 17 -38 30 -42 30 -23 0 -5 20 19 21 25 2 25 2 4 6 -13 3 -46 -2
-72 -11 -27 -9 -57 -13 -67 -10 -15 5 -15 4 -3 -5 12 -9 10 -11 -11 -11 -32 0
-90 23 -91 36 0 5 -2 11 -4 13 -2 2 -4 0 -4 -5 0 -5 -10 -11 -22 -12 -114 -11
-148 -66 -117 -187 5 -22 11 -47 13 -56 3 -9 -2 -29 -10 -44 -7 -15 -15 -43
-17 -63 -2 -33 -6 -37 -37 -43 -19 -3 -49 -13 -67 -22 -18 -9 -39 -17 -47 -17
-15 0 -45 -26 -82 -71 -21 -26 -57 -49 -75 -49 -28 0 -96 -44 -120 -78 -72
-100 -53 -181 52 -234 79 -39 84 -40 202 -43 114 -4 129 -9 187 -63 84 -79
146 -111 202 -106 37 4 49 -7 13 -12 -17 -2 -74 -42 -76 -52 -7 -42 -6 -68 2
-85 13 -23 147 -87 166 -80 10 4 7 -8 -8 -37 -18 -34 -20 -46 -11 -61 16 -25
15 -49 0 -49 -103 -3 -140 -9 -179 -29 -51 -26 -99 -69 -99 -88 0 -7 -4 -13
-9 -13 -5 0 -13 -18 -19 -40 -8 -34 -7 -44 10 -65 11 -14 28 -25 39 -25 30 0
22 -25 -17 -55 -64 -49 -104 -95 -104 -120 0 -13 9 -39 20 -58 11 -19 27 -57
35 -85 14 -46 20 -53 63 -73 59 -27 111 -39 186 -43 49 -2 61 -7 67 -23 4 -12
31 -32 59 -45 46 -22 58 -24 110 -16 92 14 172 49 197 86 11 18 23 27 25 21 2
-7 13 -13 25 -14 11 0 28 -9 37 -18 21 -20 11 -20 77 -1 90 26 166 64 179 90
8 13 16 24 20 24 4 0 18 28 31 61 24 62 45 82 59 59 12 -19 66 -14 105 10 19
12 35 18 35 13 0 -4 4 -3 8 2 4 6 28 24 54 40 36 22 56 46 84 97 20 37 49 78
64 93 45 43 191 86 214 62 11 -11 34 -49 77 -124 l18 -32 -29 -6 c-18 -4 -35
-17 -42 -32 -7 -15 -23 -28 -37 -30 -37 -5 -79 -35 -105 -73 -27 -42 -27 -70
1 -109 l21 -28 -20 -17 c-22 -19 -51 -14 -42 7 3 9 -3 16 -15 20 -17 4 -19 2
-10 -20 l9 -24 -30 21 c-16 12 -30 18 -30 14 0 -4 -8 0 -18 9 -13 12 -26 14
-55 8 -20 -5 -37 -7 -37 -4 0 2 -13 -4 -30 -14 -16 -9 -34 -31 -40 -48 -9 -28
-15 -31 -52 -34 -23 -1 -48 -7 -55 -13 -7 -6 -13 -7 -13 -4 0 11 -25 -17 -40
-44 -27 -48 -32 -108 -16 -171 14 -53 62 -129 81 -129 7 0 18 -7 25 -15 7 -8
21 -15 31 -15 11 0 19 -4 19 -10 0 -5 15 -12 34 -16 19 -3 42 -14 52 -25 16
-17 15 -20 -15 -54 -36 -41 -34 -37 -20 -69 11 -24 63 -55 217 -131 90 -44
147 -48 246 -16 54 17 71 20 77 10 4 -7 6 -16 4 -20 -3 -3 23 -21 58 -39 76
-40 71 -36 61 -52 -22 -35 -9 -98 21 -98 15 0 75 -32 75 -40 0 -3 -24 -18 -53
-34 -30 -15 -67 -38 -83 -51 -29 -23 -29 -24 -29 -133 0 -128 2 -132 93 -174
57 -26 71 -29 139 -25 45 3 92 0 117 -7 55 -17 118 -14 149 7 25 16 77 112 77
141 0 8 5 18 12 22 7 5 9 2 6 -8 -6 -14 30 -50 49 -49 4 0 19 -7 32 -15 30
-20 81 -11 109 19 26 27 82 136 82 158 0 22 18 35 60 43 25 4 42 16 60 43 14
20 25 39 25 42 0 3 4 12 8 19 5 6 5 17 1 24 -5 8 0 9 17 4 13 -4 31 -9 39 -11
8 -2 15 -4 15 -5 0 -1 23 -3 51 -5 59 -4 107 -22 171 -65 119 -81 201 -104
254 -73 28 17 35 29 44 70 14 73 29 85 210 176 72 35 159 81 195 101 120 68
127 71 152 58 38 -19 158 -86 234 -130 95 -55 155 -123 173 -193 7 -30 20 -64
27 -76 12 -20 67 -51 99 -57 6 -1 15 -5 21 -9 6 -3 14 -3 18 0 3 4 19 8 34 9
41 4 107 27 122 44 3 3 28 22 56 43 67 48 152 87 205 93 24 3 47 7 51 10 4 3
8 0 8 -7 0 -8 4 -8 13 -1 19 16 34 2 47 -48 7 -25 21 -62 32 -83 59 -116 233
-209 303 -163 25 17 26 16 63 -23 41 -43 131 -91 174 -91 30 0 68 27 68 47 0
10 7 9 28 -4 15 -10 29 -20 32 -23 3 -3 32 -18 66 -33 46 -20 73 -26 109 -23
27 2 51 9 53 15 2 6 9 11 15 11 7 0 30 21 52 47 62 73 81 89 125 102 45 13 51
32 17 53 -15 11 -29 13 -46 7 -26 -10 -106 12 -94 26 5 4 -2 2 -14 -4 -15 -8
-23 -8 -23 -1 0 13 -37 13 -45 0 -8 -13 -35 -1 -35 16 0 8 -4 14 -8 14 -4 0
-8 9 -9 20 -1 13 6 22 21 26 26 6 51 48 47 79 -4 23 -38 75 -51 75 -5 0 -3
-12 5 -26 15 -29 11 -50 -11 -58 -8 -3 -14 1 -14 11 0 9 -11 31 -25 49 -14 18
-25 41 -25 52 0 11 -7 23 -16 26 -12 5 -14 1 -9 -15 7 -20 6 -20 -24 -4 -30
15 -44 55 -20 55 5 0 15 14 21 31 9 25 15 29 32 24 11 -3 30 -8 41 -12 32 -9
107 -6 152 6 59 16 92 46 99 91 5 32 10 39 35 42 16 3 29 2 29 -2 0 -3 35 -7
79 -8 l79 -2 74 49 c41 27 80 60 87 73 13 25 12 63 -3 86 -11 18 -6 21 45 28
44 6 99 32 99 46 0 4 4 8 9 8 13 0 105 93 120 122 9 18 12 42 8 70 -17 113
-33 174 -55 198 -15 18 -17 18 -34 4 -16 -15 -19 -15 -33 0 -12 12 -13 16 -3
17 7 0 4 4 -7 9 -26 11 -78 12 -71 2 3 -5 -1 -9 -9 -9 -8 0 -15 4 -15 8 0 14
-33 19 -48 7 -11 -9 -14 -9 -9 -1 4 6 3 14 -2 17 -5 4 -12 2 -16 -4 -3 -5 -16
-10 -28 -10 -12 0 -42 -11 -65 -25 l-44 -25 -19 23 c-10 12 -19 31 -19 42 0
27 -46 105 -73 124 -35 26 -66 34 -33 9 25 -19 56 -72 56 -96 0 -20 -30 -7
-38 17 -12 32 -36 59 -80 90 -23 16 -30 26 -22 31 9 6 9 12 -1 29 -18 28 -37
27 -32 -3 7 -33 -11 -40 -27 -12 -7 13 -22 29 -34 35 -20 10 -20 11 -1 9 11
-2 34 11 51 27 100 96 130 116 204 132 37 8 128 8 153 0 26 -9 57 -51 57 -79
1 -25 144 -165 195 -190 74 -37 98 -41 122 -19 20 19 20 18 41 -25 32 -65 91
-124 150 -151 61 -27 81 -28 108 -9 19 14 44 5 44 -16 0 -60 267 -161 334
-126 13 7 16 7 12 -1 -4 -7 -1 -9 8 -5 27 10 49 56 48 101 -1 52 4 53 84 17
43 -20 77 -27 124 -28 70 -1 93 11 119 62 19 35 16 109 -5 140 -19 28 -20 62
-2 73 16 10 17 71 2 100 -7 14 -38 41 -68 59 l-56 34 25 42 c38 64 29 126 -22
159 -20 13 -23 13 -23 1 0 -8 5 -18 10 -21 21 -13 9 -23 -15 -12 -14 7 -25 15
-25 19 0 4 -19 12 -42 19 -44 11 -68 25 -68 39 0 11 25 7 41 -6 8 -6 21 -13
30 -17 14 -4 13 1 -5 33 -24 44 -68 73 -59 39 4 -13 0 -19 -11 -19 -9 0 -16 5
-16 10 0 6 -7 10 -15 10 -23 0 -18 18 7 22 20 3 36 38 17 38 -14 0 -11 28 4
33 6 2 33 -2 59 -8 33 -9 49 -10 57 -2 6 6 11 8 11 3 0 -25 194 158 209 197
11 28 -10 97 -29 97 -6 0 -10 4 -10 10 0 8 37 8 48 -1 1 -1 5 -2 10 -3 4 -1
25 -8 47 -16 40 -14 135 -21 135 -11 0 3 20 14 45 24 25 11 45 23 45 27 0 4 8
10 18 12 30 8 71 70 72 108 3 56 -30 150 -52 150 -6 0 -8 3 -5 7 10 10 -52 47
-103 62 -58 17 -90 40 -125 91 -16 23 -48 52 -71 66 -44 26 -130 52 -158 48
-9 -1 -23 10 -32 27 -13 27 -13 30 3 36 31 12 74 57 90 93 32 78 4 183 -65
240 -36 30 -126 65 -142 55 -5 -3 -11 -2 -13 3 -3 4 -38 5 -77 2 -69 -5 -74
-7 -106 -45 -26 -31 -34 -36 -34 -21 0 36 -23 84 -44 94 -48 21 -186 -8 -186
-40 0 -4 -4 -8 -8 -8 -5 0 -27 -17 -49 -37 -22 -21 -62 -49 -89 -63 -77 -38
-99 -69 -109 -155 -7 -58 -13 -87 -26 -132 -10 -31 -10 -31 -43 -18 -19 8 -36
12 -39 8 -4 -3 -21 -6 -39 -7 -18 -1 -38 -5 -45 -9 -14 -9 -27 8 -18 23 10 16
23 87 30 161 2 19 9 54 16 78 11 37 21 48 68 74 31 18 58 32 61 32 17 2 118
65 194 121 49 36 102 68 118 71 15 3 28 9 28 13 0 4 12 11 27 15 85 21 213
138 213 195 0 26 57 90 100 112 37 19 62 23 145 25 55 1 105 2 111 2 20 2 61
46 68 73 15 65 -66 147 -142 143 -28 -1 -32 2 -32 23 0 14 -12 36 -29 51 -30
28 -31 28 -191 36 -19 1 -65 -9 -102 -21 l-67 -22 -3 26 c-3 28 -54 54 -67 34
-4 -6 -12 -7 -20 -3 -22 14 -102 1 -142 -22 -20 -12 -52 -34 -70 -48 -19 -15
-45 -30 -59 -33 -14 -4 -20 -4 -14 1 9 6 19 31 29 73 12 54 19 63 53 77 20 8
58 37 83 63 49 51 59 56 129 65 72 8 104 16 114 26 6 5 18 9 28 9 9 0 33 14
53 31 27 24 35 39 35 65 0 19 -5 34 -11 34 -5 0 -8 4 -5 9 4 5 26 3 52 -5 106
-32 192 -22 244 28 51 48 59 98 22 141 -17 19 -10 34 10 21 22 -15 82 -34 105
-34 31 0 125 44 148 70 10 12 21 33 23 48 2 14 13 33 25 41 86 60 112 188 52
251 -25 26 -29 38 -31 102 -1 41 -7 74 -13 76 -6 2 -11 8 -11 14 0 5 -6 15
-13 22 -28 28 -56 35 -118 30 -35 -2 -98 -6 -139 -9 -101 -5 -130 -11 -160
-34 -22 -16 -29 -17 -45 -5 -12 9 -38 12 -79 10 -34 -2 -61 -5 -61 -6 0 -1
-15 -3 -33 -6 -56 -7 -113 -52 -137 -109 -12 -27 -17 -29 -72 -31 -32 -1 -61
-3 -64 -3 -14 -2 -69 -66 -69 -80 -1 -25 -17 7 -23 45 -10 62 -64 117 -102
104 -32 -12 -45 -2 -35 25 6 15 6 27 -1 30 -5 4 -7 10 -5 14 12 20 -18 83 -60
125 -44 44 -49 45 -108 47 -208 5 -234 3 -262 -11 -27 -14 -62 -46 -65 -59 -2
-7 -6 -57 -8 -84 -1 -10 -19 -37 -41 -59 -22 -23 -40 -49 -41 -58 -1 -8 -2
-28 -4 -45 -4 -47 13 -90 60 -160 25 -36 45 -70 45 -75 0 -5 -11 -12 -25 -16
-14 -3 -25 -11 -25 -16 0 -5 -6 -16 -14 -23 -26 -26 3 -107 64 -178 8 -9 31
-47 51 -84 29 -54 44 -71 83 -92 39 -21 46 -29 40 -46 -4 -11 -7 -35 -7 -53 0
-29 9 -42 62 -89 73 -65 88 -91 94 -162 5 -52 4 -52 -14 -32 -30 32 -77 53
-112 50 -18 -2 -39 1 -47 6 -9 5 -15 4 -18 -3 -2 -7 -10 -12 -18 -12 -7 0 -26
-12 -42 -26 -26 -25 -28 -30 -21 -74 4 -27 15 -63 25 -82 10 -18 17 -46 16
-63 -1 -16 4 -37 10 -46 21 -26 110 -61 163 -64 38 -2 51 -7 53 -20 5 -21 -14
-35 -46 -35 -15 0 -21 4 -16 12 5 8 2 9 -10 5 -10 -4 -25 -7 -35 -7 -19 0 -51
-56 -73 -127 -7 -24 -16 -43 -20 -43 -9 0 -19 38 -22 75 0 14 -3 25 -6 25 -3
0 -7 14 -8 31 -3 43 -4 43 -74 78 -70 35 -78 37 -78 16 0 -13 -4 -14 -20 -5
-24 13 -24 10 -5 -36 8 -19 14 -37 14 -40 -1 -2 3 -17 9 -32 8 -22 30 -96 38
-124 1 -5 2 -9 4 -10 2 -4 5 -16 24 -103 39 -175 52 -241 51 -254 0 -17 -25
-28 -25 -12 0 6 -7 11 -15 11 -7 0 -18 7 -23 16 -5 9 -12 15 -16 15 -3 -1 -19
5 -34 13 -32 16 -119 14 -164 -5 -26 -11 -34 -25 -42 -75 -4 -23 47 -120 79
-150 15 -14 22 -29 19 -42 -5 -15 3 -24 38 -40 24 -12 61 -24 83 -28 l41 -6
-1 -66 c0 -37 3 -80 7 -97 5 -16 11 -46 14 -65 5 -30 4 -33 -10 -21 -9 7 -29
11 -46 9 -20 -3 -30 0 -30 9 0 17 -19 17 -26 -1 -3 -8 -16 -17 -30 -20 -35 -9
-53 -53 -50 -119 l3 -55 -41 0 c-80 1 -156 -25 -156 -55 0 -6 -26 -27 -58 -45
-92 -53 -120 -111 -93 -194 12 -36 24 -45 109 -78 48 -19 140 -18 194 2 34 13
49 14 54 6 7 -12 -35 -98 -48 -98 -5 0 -8 -5 -8 -10 0 -6 -30 -51 -66 -100
-62 -85 -91 -111 -80 -72 11 42 17 82 11 82 -10 0 -50 -22 -56 -32 -3 -5 -7
-34 -8 -65 -2 -60 -6 -73 -22 -73 -9 0 -6 67 7 123 6 31 -2 34 -32 9 -18 -14
-84 -194 -84 -228 0 -34 -251 -228 -402 -312 l-57 -32 21 50 c11 28 25 50 29
50 5 0 9 7 9 15 0 8 38 51 83 97 51 51 89 98 97 121 8 20 17 37 20 37 4 0 7 6
8 13 1 6 4 24 8 40 6 25 4 27 -24 27 -23 0 -32 -6 -37 -22 -12 -40 -40 -97
-47 -98 -11 0 -11 -1 17 54 25 50 21 71 -12 59 -8 -3 -13 2 -13 16 0 14 -6 21
-19 21 -26 0 -31 -11 -37 -68 -3 -26 -11 -53 -18 -60 -10 -10 -12 -1 -8 45 2
32 8 60 13 61 5 2 7 8 3 13 -3 5 -13 5 -25 -1 -10 -6 -19 -8 -19 -5 0 10 -34
-27 -36 -39 -3 -11 -42 -153 -47 -171 -8 -22 -32 -70 -38 -75 -4 -3 -29 -48
-54 -100 -61 -123 -81 -149 -123 -167 -40 -17 -92 -25 -92 -14 0 3 9 32 20 64
24 69 26 128 3 170 -9 18 -18 37 -18 42 -1 6 -3 14 -3 18 -1 5 -9 1 -18 -7 -8
-9 -30 -17 -47 -18 -18 0 -36 -2 -42 -3 -5 -2 -19 -3 -31 -4 -11 0 -38 -16
-60 -35 l-40 -34 -19 35 c-11 19 -36 43 -57 54 -21 11 -38 24 -38 29 0 18 -28
10 -33 -10 -3 -14 -11 -18 -27 -15 -22 4 -55 -8 -76 -29 -17 -17 -40 -97 -43
-146 -1 -24 -7 -48 -13 -51 -16 -10 -20 -48 -8 -83 11 -35 46 -65 94 -82 l31
-11 -40 -12 c-22 -7 -47 -15 -55 -18 -8 -3 -19 -7 -25 -8 -5 -2 -34 -10 -62
-18 -29 -9 -53 -12 -53 -8 0 5 23 32 51 60 32 33 46 53 37 55 -37 12 -107 16
-113 6 -3 -5 -14 -10 -23 -10 -25 0 -75 -49 -118 -116 -59 -93 -51 -87 -251
-179 -46 -21 -83 -41 -83 -45 0 -10 -40 -23 -62 -21 -9 1 -19 -3 -23 -8 -6
-11 -53 5 -160 55 -90 41 -113 61 -141 117 -15 29 -46 71 -70 95 -24 24 -47
54 -50 68 -3 13 -9 24 -13 24 -4 0 -7 10 -8 21 -3 30 -8 33 -41 18 -28 -12
-32 -25 -17 -64 4 -11 12 -33 18 -50 5 -16 24 -45 40 -62 17 -18 27 -36 23
-40 -4 -4 -10 -3 -14 3 -6 9 -33 20 -72 28 -41 10 -100 32 -100 39 0 4 -4 6
-9 3 -4 -3 -36 5 -70 19 -34 13 -64 24 -67 23 -15 -1 -63 26 -68 38 -7 19 23
18 45 -2 15 -14 21 -13 63 7 49 22 95 69 97 97 1 9 3 27 4 40 1 12 -7 35 -19
49 -11 15 -22 38 -24 52 -7 58 -74 161 -104 161 -5 0 4 -13 20 -30 31 -30 65
-113 65 -156 0 -13 3 -24 8 -24 14 0 10 -26 -5 -39 -9 -8 -16 -8 -20 -2 -4 5
-2 12 4 16 14 9 12 25 -3 25 -7 0 -13 8 -13 18 -3 66 -48 167 -70 158 -12 -5
-34 12 -34 27 0 5 7 7 14 4 10 -4 13 -1 9 9 -5 13 -14 17 -30 12 -5 -2 -7 -6
-6 -10 2 -5 -13 -8 -33 -8 -28 0 -42 -7 -66 -34 -26 -30 -34 -33 -55 -25 -16
6 -22 5 -18 -1 3 -6 12 -10 19 -10 16 0 28 -38 15 -46 -5 -3 -7 -10 -4 -15 4
-5 3 -9 0 -9 -3 0 -11 13 -16 30 -6 16 -14 29 -17 28 -12 -2 -42 14 -42 22 0
5 7 10 15 12 12 2 11 6 -5 16 -19 12 -22 11 -27 -6 -3 -14 -12 -18 -32 -16
-22 3 -35 -5 -57 -29 -16 -18 -28 -33 -26 -34 1 -2 2 -4 1 -5 -1 -2 -3 -30 -6
-62 -2 -32 -11 -65 -18 -73 -14 -13 -13 -31 0 -65 6 -14 -9 -11 -71 18 -43 20
-90 42 -104 49 -14 8 -50 25 -80 38 -159 71 -194 88 -278 132 -38 20 -58 48
-66 90 -5 30 -20 84 -51 183 -20 66 -27 154 -15 187 8 20 5 27 -12 39 -11 8
-28 25 -37 38 -19 27 -38 33 -57 17 -7 -6 -17 -8 -22 -5 -13 8 -64 -33 -57
-45 8 -11 14 -36 29 -120 9 -50 25 -87 63 -145 27 -44 53 -87 56 -97 6 -15 4
-16 -16 -6 -18 10 -17 7 6 -15 15 -14 25 -30 22 -36 -9 -15 -43 3 -90 48 -8 6
-16 12 -19 12 -7 0 -49 45 -91 96 -16 21 -40 48 -52 61 -12 12 -20 23 -17 23
3 0 -23 37 -58 83 -83 106 -87 112 -58 97 34 -18 100 -81 115 -109 7 -14 22
-35 32 -46 10 -12 34 -41 53 -65 49 -64 122 -141 128 -135 3 3 -4 13 -15 22
-17 16 -53 60 -121 151 -9 12 -22 28 -27 35 -6 6 -24 30 -40 52 -17 22 -33 42
-36 45 -3 3 -18 26 -33 52 -26 45 -35 69 -41 118 -2 14 -3 28 -4 33 -1 4 -7 7
-15 7 -10 0 -13 -8 -10 -25 2 -14 2 -25 -1 -25 -9 0 -112 105 -130 132 -30 47
-14 60 42 32 92 -45 152 -44 177 4 8 15 17 25 20 24 16 -9 72 21 107 58 32 33
39 47 39 80 0 22 5 40 10 40 6 0 10 7 10 16 0 11 -6 15 -20 11 -12 -3 -20 0
-20 7 0 15 -32 46 -46 46 -5 0 -1 -7 9 -14 10 -8 22 -27 26 -44 12 -40 -17
-100 -61 -125 -35 -20 -35 -19 26 53 24 28 27 36 14 38 -9 2 -21 16 -28 32
-21 51 -66 82 -120 82 -26 0 -56 -2 -66 -6 -18 -5 -20 -1 -18 48 1 60 -14 116
-41 142 -17 17 -17 17 -10 -6 4 -14 11 -29 15 -35 10 -14 10 -119 0 -135 -7
-11 -12 -11 -22 -2 -10 8 -13 28 -10 71 4 57 3 61 -32 96 -43 42 -44 49 -11
41 29 -7 31 -3 8 19 -15 16 -15 20 1 70 9 30 32 77 51 106 36 52 39 75 15 118
-14 26 -21 26 -43 0 -10 -11 -21 -18 -25 -15 -9 9 -11 66 -3 66 8 0 8 6 15
120 5 76 -11 140 -34 140 -7 0 -8 -6 -2 -17 21 -40 2 -187 -31 -248 -6 -11
-12 -22 -12 -25 -1 -3 -11 -25 -23 -50 -11 -25 -28 -66 -36 -91 -19 -57 -45
-119 -50 -119 -10 0 12 106 31 149 9 20 17 38 18 41 1 3 12 28 24 55 38 83 55
197 40 271 -5 27 2 55 13 48 7 -5 8 -3 4 5 -6 9 -12 8 -26 -4 -15 -14 -18 -14
-30 0 -9 11 -10 18 -1 28 6 8 8 17 4 20 -3 4 0 13 6 21 7 8 15 48 18 88 4 62
1 84 -21 147 -14 40 -30 79 -34 85 -5 6 -14 32 -21 57 -7 25 -22 57 -34 70
-12 14 -19 20 -15 14 3 -5 14 -37 23 -70 16 -55 32 -92 45 -105 28 -28 36
-204 11 -234 -8 -9 -11 -16 -8 -16 3 0 0 -19 -7 -43 -7 -24 -12 -50 -10 -59 3
-20 -21 -42 -35 -34 -11 7 -7 34 22 128 23 73 16 162 -19 238 -16 36 -30 68
-30 73 -1 4 -2 8 -3 10 -2 1 -4 12 -7 24 -7 38 -39 87 -72 109 -30 21 -31 22
-10 28 13 3 26 0 30 -7 4 -7 5 2 2 20 -8 42 45 149 103 209 42 42 44 47 41 94
-5 67 -20 81 -53 50 l-25 -23 0 23 c0 22 -3 21 -40 -19 -22 -23 -40 -40 -40
-36 0 4 -16 -12 -35 -35 -19 -23 -35 -38 -35 -33 0 5 8 18 18 29 34 36 54 73
52 96 -5 53 1 64 46 93 25 16 58 42 75 59 63 65 97 187 60 220 -15 14 -17 13
-16 -17 1 -18 -1 -36 -4 -42 -3 -5 -6 -12 -6 -15 -1 -14 -31 -70 -37 -70 -5 0
-8 -6 -8 -12 -1 -13 -50 -55 -50 -43 0 4 8 19 18 33 31 45 43 79 44 130 1 38
-15 53 -49 47 -33 -5 -32 38 0 52 22 10 23 9 19 -12 -2 -12 1 -26 7 -29 10 -7
67 27 83 49 5 7 8 7 8 0 0 -5 15 7 34 28 53 60 65 171 24 236 -19 31 -25 26
-33 -25 -6 -44 -16 -52 -21 -16 -3 23 -12 57 -15 57 -9 0 -4 55 7 77 24 47 -8
189 -47 214 -26 16 -52 15 -45 -1 7 -19 -8 -20 -24 -1 -6 8 -18 12 -26 9 -8
-3 -14 -1 -15 3 -4 54 -34 115 -59 121 -11 3 -12 2 -3 -4 7 -5 14 -18 16 -28
1 -11 5 -24 9 -30 12 -21 18 -70 9 -84 -14 -22 -30 -4 -46 54 -22 75 -48 105
-85 100 -17 -2 -30 0 -30 4 0 4 -23 7 -50 6 -37 -1 -57 -8 -77 -26 -75 -68
-81 -79 -84 -161 -3 -58 -17 -82 -40 -67 -21 13 -79 11 -79 -3 0 -6 -3 -8 -7
-5 -11 12 -34 -46 -40 -105 -6 -58 -6 -59 -22 -35 -19 29 -47 57 -56 57 -4 0
4 -13 17 -29 29 -37 83 -114 83 -121 1 -3 6 -14 12 -26 18 -32 24 -76 10 -71
-7 3 -11 10 -10 16 2 6 -2 11 -9 11 -6 0 -9 3 -5 6 3 4 -14 32 -39 63 -89 112
-109 143 -106 161 2 11 1 12 -6 3 -4 -7 -19 -11 -32 -8 -13 3 -31 -2 -41 -11
-15 -13 -17 -12 -28 13 -6 15 -13 37 -15 49 -10 50 -42 104 -80 134 -18 14
-19 14 -5 -7 8 -13 17 -23 21 -23 7 0 34 -80 44 -130 3 -13 9 -29 13 -35 5 -5
12 -20 15 -32 6 -19 3 -23 -13 -23 -25 0 -37 22 -62 108 -22 78 -57 134 -99
158 -16 10 -30 21 -30 25 0 3 -18 12 -40 19 -21 7 -37 17 -34 21 3 5 -5 5 -18
0 -13 -4 -29 -6 -36 -4 -22 8 -44 -19 -39 -46 l5 -26 -17 23 c-9 13 -31 40
-49 60 l-34 37 31 -47 c17 -26 31 -51 31 -57 0 -6 4 -11 8 -11 8 0 32 -43 32
-56 0 -3 -10 -4 -22 -2 -15 2 -34 21 -55 57 -58 97 -70 108 -138 127 -38 11
-59 22 -52 26 15 10 -5 9 -50 -2z m6997 -36 c0 -2 -7 -4 -15 -4 -8 0 -15 4
-15 10 0 5 7 7 15 4 8 -4 15 -8 15 -10z m114 -10 c9 -24 7 -27 -9 -10 -17 17
-19 26 -6 26 5 0 12 -7 15 -16z m93 -78 c22 -42 18 -131 -6 -157 -10 -11 -21
-17 -24 -12 -7 12 -7 93 1 90 4 -1 8 1 10 6 3 10 -9 59 -18 72 -4 6 -12 25
-19 44 l-11 35 26 -25 c14 -13 33 -37 41 -53z m-5583 -151 c1 -22 -4 -54 -11
-72 -7 -18 -13 -46 -13 -62 0 -16 -6 -31 -15 -34 -11 -5 -13 2 -9 36 4 37 6
154 2 212 -2 46 5 47 24 5 11 -25 21 -63 22 -85z m6734 103 c-6 -18 -25 -20
-31 -3 -5 10 0 15 14 15 12 0 19 -5 17 -12z m-450 -59 c-18 -12 -23 8 -6 28
12 15 13 15 16 -2 2 -10 -2 -21 -10 -26z m482 3 c0 -13 -23 -42 -34 -42 -11 0
-6 51 7 64 13 15 27 3 27 -22z m-1063 -64 c30 -34 41 -76 36 -143 -2 -33 -5
-79 -6 -102 -3 -38 -17 -75 -17 -44 0 7 -4 10 -9 6 -11 -6 -34 31 -27 44 28
45 18 200 -15 236 -13 13 -11 25 4 25 8 0 23 -10 34 -22z m1068 -15 c-5 -44
-26 -61 -39 -33 -7 16 -4 26 14 45 13 14 25 25 27 25 1 0 1 -17 -2 -37z m-815
-33 c12 -8 9 -10 -13 -10 -16 0 -26 4 -22 10 8 12 16 12 35 0z m835 -50 c-5
-8 -11 -8 -21 1 -12 10 -12 14 -2 20 16 10 33 -5 23 -21z m38 -29 c4 -18 -19
-51 -36 -51 -9 0 -4 44 8 57 14 17 22 16 28 -6z m-4 -83 c-7 -13 -12 -24 -11
-25 10 -14 -18 -49 -59 -75 -19 -12 -28 -29 -33 -57 -4 -26 -12 -41 -20 -41
-8 0 -16 -3 -18 -7 -4 -11 -79 -45 -85 -39 -3 2 8 11 24 20 38 19 51 35 57 71
3 17 15 37 28 45 36 24 68 60 68 75 0 15 38 55 52 55 5 0 3 -10 -3 -22z
m-6751 -70 c-5 -24 -16 -53 -24 -65 -17 -26 -54 -49 -54 -33 0 5 3 10 8 10 4
0 13 14 20 30 8 17 17 28 22 25 4 -3 11 15 15 40 3 25 10 43 15 40 4 -3 4 -24
-2 -47z m6339 -165 c-4 -4 3 -18 16 -32 13 -14 27 -33 30 -42 10 -30 -23 -77
-69 -98 -53 -25 -67 -27 -34 -4 57 39 75 100 42 137 -34 38 -35 46 -6 46 15 0
24 -3 21 -7z m-300 -193 c3 -11 9 -20 13 -20 4 0 10 -9 13 -20 4 -15 -4 -28
-28 -47 -18 -14 -36 -26 -41 -25 -5 0 -15 -4 -21 -10 -8 -6 -13 -7 -13 -1 0 5
11 15 24 21 31 14 41 55 21 85 -8 13 -12 27 -8 30 13 14 35 7 40 -13z m-6310
-181 c2 -43 -2 -57 -26 -88 -34 -44 -53 -79 -57 -106 -2 -11 -6 -31 -9 -45 -4
-14 -7 -31 -7 -37 -1 -10 -5 -10 -16 -1 -25 22 -9 89 38 155 35 51 41 66 37
96 -4 32 15 76 33 77 3 0 6 -23 7 -51z m5984 -39 c-29 -28 -64 -56 -79 -61
-31 -10 -58 -49 -67 -95 -14 -66 -25 -95 -35 -89 -12 7 -3 85 14 127 9 20 25
40 37 43 12 4 49 34 81 66 33 33 63 57 68 54 5 -3 12 0 15 6 4 5 9 8 12 5 3
-3 -18 -28 -46 -56z m-5821 -57 c0 -16 -16 -43 -44 -74 -44 -49 -92 -135 -100
-180 -2 -13 -5 -26 -6 -29 -2 -3 -2 -8 -2 -11 1 -4 -10 -17 -23 -29 -30 -29
-33 -14 -9 57 29 91 61 142 126 201 17 15 25 30 20 36 -12 16 -9 29 8 48 19
20 30 14 30 -19z m5995 -133 c0 -16 -6 -32 -12 -35 -14 -5 -17 22 -7 49 10 25
19 19 19 -14z m-584 10 c15 0 80 -72 76 -84 -8 -23 -28 -15 -42 16 -9 18 -31
44 -48 57 -18 13 -24 21 -14 17 10 -3 23 -6 28 -6z m988 -24 c10 -12 8 -17 -8
-26 -12 -6 -22 -8 -22 -5 -10 43 6 60 30 31z m11 -50 c0 -7 -9 -16 -21 -19
-21 -6 -21 -5 -3 13 23 23 24 23 24 6z m-6690 -43 c0 -7 -4 -13 -10 -13 -5 0
-9 -3 -9 -7 4 -26 -4 -35 -12 -14 -5 14 -7 38 -3 55 6 28 7 29 20 11 8 -10 14
-25 14 -32z m6791 -1 c-7 -2 -18 1 -23 6 -8 8 -4 9 13 5 13 -4 18 -8 10 -11z
m57 -34 c-3 -7 -11 -13 -18 -13 -7 0 -15 6 -17 13 -3 7 4 12 17 12 13 0 20 -5
18 -12z m22 -50 c-1 -32 -22 -56 -52 -62 l-26 -4 21 36 c32 56 57 69 57 30z
m-320 -98 c-33 -26 -52 -25 -21 0 13 11 28 20 35 20 6 0 0 -9 -14 -20z m-63
-27 c-3 -5 -15 -30 -27 -58 -45 -101 -51 -113 -80 -140 -40 -38 -57 -28 -25
15 14 19 31 52 37 72 11 39 72 118 89 118 6 0 8 -3 6 -7z m-984 -75 c-1 -4 7
-45 18 -90 10 -48 14 -87 9 -92 -19 -19 -36 4 -49 65 -22 108 -31 139 -40 139
-5 0 -12 7 -15 16 -5 12 3 10 36 -8 22 -13 41 -26 41 -30z m807 -161 c0 -14
-69 -52 -77 -43 -3 2 12 16 34 30 46 30 43 29 43 13z m-105 -58 c-8 -12 -65
-29 -65 -18 0 5 9 9 20 9 11 0 20 4 20 8 0 5 7 9 15 9 8 0 12 -4 10 -8z m-89
-47 c-6 -11 -96 -74 -96 -68 0 18 18 40 48 61 31 21 60 25 48 7z m-123 -79
c-8 -22 -43 -52 -60 -53 -20 0 -5 23 30 48 38 27 38 27 30 5z m378 -60 c18
-47 19 -64 3 -70 -18 -7 -23 -2 -28 23 -3 11 -9 31 -15 47 -9 24 -8 27 9 27
13 0 24 -10 31 -27z m-481 -8 c-18 -21 -69 -45 -75 -35 -3 5 11 18 32 29 46
24 60 26 43 6z m-120 -67 c-66 -52 -68 -56 -75 -115 -3 -32 -15 -101 -27 -153
-12 -52 -22 -115 -24 -140 -1 -25 -4 -45 -5 -45 -1 0 -3 -9 -4 -20 -12 -95
-77 -365 -88 -365 -5 0 -5 10 -2 21 4 12 8 27 9 33 1 6 5 20 9 31 6 19 8 29
22 100 3 17 8 38 11 47 10 33 15 64 19 113 2 28 5 50 6 50 1 0 3 12 5 28 5 45
12 81 18 97 10 28 19 80 31 183 7 64 38 123 77 147 40 24 52 15 18 -12z m996
15 c17 -17 29 -53 16 -53 -6 0 -28 27 -43 53 -5 9 -6 17 -1 17 5 0 18 -8 28
-17z m-1363 -55 c24 -12 37 -25 37 -38 0 -24 -4 -25 -22 -6 -8 7 -36 28 -64
45 -42 27 -45 31 -19 25 17 -4 47 -15 68 -26z m1430 -69 c6 -46 -15 -106 -47
-136 -30 -27 -32 -21 -11 40 13 38 22 93 24 152 1 19 1 19 15 0 7 -11 16 -36
19 -56z m-6979 -71 c9 -12 16 -36 16 -53 l-1 -30 -22 27 c-23 28 -34 78 -17
78 5 0 16 -10 24 -22z m99 -24 c18 -9 34 -18 35 -20 2 -1 6 -23 8 -47 4 -43 3
-45 -27 -56 -51 -18 -46 -27 -64 112 -4 31 4 33 48 11z m537 -54 c0 -11 -4
-20 -8 -20 -16 0 -67 -105 -83 -170 -13 -54 -19 -66 -38 -68 -18 -3 -22 0 -18
15 3 10 9 34 12 53 8 35 46 112 70 140 7 8 15 22 17 30 8 38 48 55 48 20z
m6243 -7 c-3 -10 -10 -23 -15 -30 -6 -7 -3 -23 6 -41 23 -45 -3 -48 -33 -4
l-24 36 34 28 c39 33 40 33 32 11z m-6836 -89 c15 -50 6 -62 -22 -32 -19 21
-28 48 -41 118 -5 29 51 -49 63 -86z m5963 -8 c0 -3 -4 -8 -10 -11 -5 -3 -10
-1 -10 4 0 6 5 11 10 11 6 0 10 -2 10 -4z m1070 -71 c11 -13 10 -14 -4 -9 -9
3 -16 10 -16 15 0 13 6 11 20 -6z m56 -46 c16 -17 16 -22 4 -29 -11 -7 -16 -5
-18 5 -2 8 -8 15 -13 15 -5 0 -9 7 -9 15 0 21 14 19 36 -6z m50 -64 c20 -19 4
-20 -22 0 -12 9 -14 14 -6 15 7 0 20 -7 28 -15z m-1598 -79 c12 -4 22 -10 23
-14 0 -4 2 -15 4 -24 4 -24 -1 -23 -31 7 -14 14 -29 25 -34 25 -6 0 -10 4 -10
9 0 10 12 9 48 -3z m1792 -28 c20 -33 25 -118 7 -143 -14 -18 -15 -17 -12 15
1 19 -2 46 -7 60 -7 19 -5 27 9 38 17 14 17 14 -4 9 -20 -4 -33 8 -33 34 0 17
25 9 40 -13z m-1607 -78 c-3 -12 -8 -19 -11 -16 -5 6 5 36 12 36 2 0 2 -9 -1
-20z m-3 -37 c0 -5 -5 -15 -10 -23 -8 -12 -10 -11 -10 8 0 12 5 22 10 22 6 0
10 -3 10 -7z m-347 -42 c4 -1 7 -9 7 -18 0 -11 -3 -14 -8 -8 -4 6 -18 16 -32
22 l-25 12 25 -4 c14 -2 28 -4 33 -4z m258 -104 c-9 -32 -22 -62 -28 -68 -9
-9 3 34 33 120 2 8 6 12 9 10 2 -3 -4 -31 -14 -62z m-125 -2 c-3 -10 -11 -13
-18 -9 -10 5 -10 4 -2 -5 9 -10 8 -20 -3 -42 -16 -33 -33 -46 -34 -27 -1 24
-7 50 -13 56 -10 9 25 41 39 36 7 -3 16 0 20 6 10 16 19 4 11 -15z m1424 -4
c0 -4 -9 -7 -20 -8 -19 -2 -26 8 -14 20 7 7 34 -2 34 -12z m38 -49 c4 -25 -13
-30 -22 -6 -9 25 -7 36 7 32 6 -3 13 -14 15 -26z m-1315 -24 c2 -7 -7 -30 -20
-50 -12 -21 -23 -42 -23 -47 0 -5 -7 -14 -15 -21 -10 -9 -15 -9 -15 -1 0 6 3
11 8 11 8 0 47 100 44 113 -3 12 16 8 21 -5z m-74 -62 c-12 -26 -23 -45 -25
-43 -2 2 6 24 18 50 12 26 23 45 25 43 2 -2 -6 -25 -18 -50z m-5080 -11 c11
-24 50 -74 88 -112 38 -37 83 -89 101 -116 l31 -47 -38 19 c-21 11 -49 35 -63
53 -14 19 -51 58 -83 88 -70 67 -97 116 -82 147 13 29 22 22 46 -32z m231 41
c0 -11 -19 -15 -25 -6 -3 5 1 10 9 10 9 0 16 -2 16 -4z m4690 -71 c0 -8 -4
-15 -10 -15 -5 0 -7 7 -4 15 4 8 8 15 10 15 2 0 4 -7 4 -15z m1213 -155 c2 -8
-3 -22 -12 -32 -15 -15 -16 -15 -17 5 -1 12 -5 33 -9 45 -7 22 -6 23 13 11 11
-7 23 -20 25 -29z m-5606 -140 c-15 -35 -23 -42 -24 -22 -1 9 -3 24 -6 32 -19
67 -19 72 -6 80 21 13 49 -58 36 -90z m5816 -110 c-3 -11 -7 -20 -8 -20 -1 0
-5 9 -8 20 -3 12 0 20 8 20 8 0 11 -8 8 -20z m-6489 -87 c-55 -94 -64 -108
-64 -93 0 15 77 140 87 140 3 0 -8 -21 -23 -47z m6472 -24 l29 -30 -27 10
c-16 6 -28 7 -28 3 0 -4 -5 1 -11 11 -8 14 -5 37 5 37 1 0 15 -14 32 -31z m86
-66 c20 -6 29 -25 19 -41 -5 -8 -19 0 -42 25 -24 26 -28 34 -14 28 11 -4 28
-9 37 -12z m-6903 -119 c-12 -27 -23 -51 -24 -54 -2 -12 -29 -56 -42 -68 -17
-17 -17 -7 1 26 7 15 22 45 32 67 25 53 46 87 51 82 2 -2 -6 -26 -18 -53z
m6921 42 c0 -2 -7 -9 -15 -16 -13 -11 -14 -10 -9 4 5 14 24 23 24 12z m-1935
-16 c-3 -5 -11 -10 -16 -10 -6 0 -7 5 -4 10 3 6 11 10 16 10 6 0 7 -4 4 -10z
m-1078 -74 c15 -31 18 -49 11 -73 -10 -37 -27 -53 -29 -26 -5 71 -21 106 -59
135 -27 20 -29 23 -13 29 28 10 68 -19 90 -65z m1953 64 c0 -5 -5 -10 -11 -10
-5 0 -7 5 -4 10 3 6 8 10 11 10 2 0 4 -4 4 -10z m-1679 -47 c19 -48 18 -63 -2
-127 -18 -59 -38 -84 -59 -71 -5 3 5 34 21 69 16 35 27 70 23 79 -3 9 -9 15
-13 13 -3 -2 -13 12 -22 30 l-16 34 29 0 c22 0 31 -6 39 -27z m2713 12 c-4 -8
-13 -15 -20 -15 -12 0 -12 3 -2 15 17 19 29 19 22 0z m-5990 -11 c9 -22 8 -24
-9 -24 -8 0 -15 9 -15 20 0 24 15 27 24 4z m3616 1 c-7 -9 -15 -13 -19 -10 -3
3 1 10 9 15 21 14 24 12 10 -5z m425 -67 c-2 -40 -2 -40 -68 -62 -55 -18 -68
-20 -83 -9 -17 12 -17 14 2 28 10 8 22 15 26 15 3 0 30 20 59 44 30 25 56 40
60 35 3 -6 5 -28 4 -51z m-456 15 c-6 -15 -14 -32 -18 -38 -5 -5 -14 -27 -20
-47 -7 -21 -17 -38 -22 -38 -6 0 -8 3 -6 8 2 4 18 37 36 75 33 68 49 90 30 40z
m2439 -1 c2 -7 -3 -12 -10 -12 -15 0 -38 19 -38 32 0 11 43 -7 48 -20z m-6013
-10 c-3 -3 -11 0 -18 7 -9 10 -8 11 6 5 10 -3 15 -9 12 -12z m74 -7 c3 -3 -7
-4 -23 -1 -16 3 -31 8 -35 11 -3 3 7 4 23 1 16 -3 31 -8 35 -11z m5183 -67
c-15 -15 -21 4 -9 32 l10 25 5 -24 c2 -13 -1 -28 -6 -33z m758 36 c0 -14 -3
-14 -15 -4 -8 7 -15 14 -15 16 0 2 7 4 15 4 8 0 15 -7 15 -16z m-1570 -31 c0
-7 -7 -13 -15 -13 -8 0 -15 6 -15 13 0 8 7 14 15 14 8 0 15 -6 15 -14z m-393
-20 c3 -7 -4 -9 -16 -6 -12 3 -18 9 -15 15 7 11 26 6 31 -9z m1957 2 c-6 -16
-24 -21 -24 -7 0 11 11 22 21 22 5 0 6 -7 3 -15z m-7334 -31 c-18 -21 -24 -10
-9 18 8 14 14 18 17 10 2 -7 -2 -19 -8 -28z m1585 11 c31 -33 75 -95 68 -95
-8 0 -56 48 -98 98 -19 23 -19 23 1 15 10 -4 24 -12 29 -18z m3593 2 c7 -5 11
-12 8 -14 -5 -5 -66 25 -66 33 0 7 42 -6 58 -19z m628 -1 c3 -8 0 -25 -7 -38
l-13 -23 -7 25 c-4 14 -7 31 -8 38 -1 17 28 15 35 -2z m-400 -72 c-4 -13 -10
-24 -15 -24 -9 0 -5 53 6 80 9 22 16 -25 9 -56z m87 50 c11 -12 -23 -65 -40
-62 -9 2 -16 6 -15 11 1 4 2 18 2 32 0 20 5 25 23 25 13 0 26 -3 30 -6z
m-3807 -32 c-9 -9 -37 8 -31 18 5 8 11 7 21 -1 8 -6 12 -14 10 -17z m4534 8
c0 -11 -7 -20 -15 -20 -8 0 -15 9 -15 20 0 11 7 20 15 20 8 0 15 -9 15 -20z
m-3540 -3 c0 -2 -10 -12 -22 -23 l-23 -19 19 23 c18 21 26 27 26 19z m2433
-28 c5 -4 -1 -16 -14 -27 -16 -16 -26 -19 -40 -12 -36 20 -68 12 -130 -32 -17
-12 -33 -15 -58 -10 l-34 7 79 35 c43 19 92 42 109 51 29 16 60 12 88 -12z
m1890 18 c3 -8 2 -20 -3 -27 -6 -10 -11 -8 -19 8 -14 27 -14 32 3 32 8 0 16
-6 19 -13z m-2436 -14 c2 -6 -8 -10 -23 -9 -15 1 -29 6 -31 13 -3 8 6 11 23 9
16 -2 30 -8 31 -13z m1663 -27 c0 -16 -18 -31 -27 -22 -8 8 5 36 17 36 5 0 10
-6 10 -14z m-800 -16 c0 -5 -7 -10 -16 -10 -8 0 -12 5 -9 10 3 6 10 10 16 10
5 0 9 -4 9 -10z m-395 -31 c-7 -10 -35 -1 -35 11 0 5 9 6 20 3 11 -3 17 -9 15
-14z m1209 -7 c6 -10 -5 -26 -21 -29 -7 -2 -13 6 -13 17 0 19 24 28 34 12z
m-4 -59 c0 -5 -7 -17 -15 -27 -15 -20 -20 -10 -9 18 6 16 24 22 24 9z m-2370
-24 c-7 -11 -9 -27 -6 -35 3 -9 -1 -14 -14 -14 -25 0 -25 5 1 41 24 34 35 38
19 8z m754 -16 c-41 -37 -54 -45 -86 -50 -18 -3 -37 -6 -43 -6 -5 -1 -13 -6
-17 -12 -5 -6 -8 -5 -8 4 0 11 -3 11 -15 1 -10 -8 -37 -11 -80 -8 -93 7 -92
17 2 13 52 -2 68 -1 48 5 -22 6 -25 8 -10 10 11 1 23 2 28 1 4 0 7 4 7 10 0 5
4 8 9 5 5 -3 29 1 55 8 25 8 46 13 46 11 0 -1 17 3 38 11 48 17 49 17 26 -3z
m-334 -57 c0 -2 -7 -6 -15 -10 -8 -3 -15 -1 -15 4 0 6 7 10 15 10 8 0 15 -2
15 -4z m-1385 -151 c66 -31 149 -71 185 -88 65 -31 71 -33 90 -36 6 0 10 -5
10 -9 0 -11 -108 -75 -126 -75 -8 0 -14 -3 -14 -7 0 -3 -23 -17 -50 -29 -55
-25 -326 -130 -350 -136 -8 -2 -31 -9 -50 -15 -36 -11 -63 -15 -160 -24 -71
-7 -94 -12 -121 -26 -21 -12 -21 -12 -15 59 9 94 11 98 61 120 24 11 48 29 55
41 11 21 14 33 26 95 3 17 19 44 36 62 29 30 178 110 220 118 12 3 23 6 25 9
12 11 68 -7 178 -59z m1167 26 c30 -11 159 -71 224 -103 53 -26 71 -55 79
-128 9 -83 40 -132 114 -180 17 -12 23 -25 24 -60 2 -39 -1 -45 -18 -44 -35 2
-118 15 -127 20 -4 3 -8 0 -8 -7 0 -10 -3 -10 -12 -1 -7 7 -17 8 -30 1 -13 -7
-18 -6 -18 2 0 9 -3 9 -14 0 -8 -7 -17 -8 -20 -3 -7 12 -68 25 -123 27 -23 1
-53 6 -65 12 -70 32 -230 115 -238 123 -5 5 -35 21 -139 76 -46 24 -59 35 -47
40 13 5 14 9 5 20 -13 16 -33 19 -24 4 3 -6 -5 -10 -19 -10 -32 0 -42 16 -19
29 10 6 12 11 6 11 -25 0 -13 18 16 25 16 3 35 13 42 21 6 8 15 14 20 14 5 0
38 14 74 30 36 17 72 30 80 30 8 0 15 5 15 10 0 6 8 10 18 10 9 1 42 12 72 25
56 24 84 25 132 6z m1898 -22 c0 -5 -11 -9 -25 -9 -27 0 -32 9 -13 28 12 12
38 -1 38 -19z m-3545 -52 c-8 -13 -16 -36 -18 -53 -2 -16 -12 -47 -21 -69 -13
-30 -19 -36 -26 -25 -5 8 -5 21 0 31 5 9 7 19 5 21 -9 9 26 82 48 100 27 24
30 23 12 -5z m3556 5 c-5 -10 -18 -25 -27 -33 -15 -13 -16 -12 -9 11 7 24 22
40 38 40 4 0 3 -8 -2 -18z m-2407 -103 c-7 -12 -41 -12 -48 0 -4 5 0 11 6 14
19 6 49 -4 42 -14z m2004 -80 c-11 -31 -20 -32 -24 -2 -4 22 4 33 21 33 11 0
12 -6 3 -31z m-3304 -51 c-2 -13 -6 -45 -8 -73 -9 -103 -32 -186 -54 -193 -7
-2 -10 2 -7 10 6 16 13 63 21 148 7 70 27 130 43 130 5 0 8 -10 5 -22z m2996
-45 c0 -19 -13 -9 -16 12 -1 8 2 13 7 9 5 -3 9 -12 9 -21z m-34 -70 c21 -27
17 -33 -15 -22 -20 7 -28 15 -24 25 7 19 23 18 39 -3z m-2401 -165 c-4 -29
-18 -47 -37 -48 -4 0 -2 15 3 33 6 17 13 38 15 45 8 25 22 1 19 -30z m-742
-60 c5 -15 -37 -112 -64 -147 -25 -32 -24 -14 3 45 12 27 23 51 23 54 15 59
27 75 38 48z m3277 -13 c0 -8 4 -15 9 -15 5 0 7 -9 4 -19 -5 -19 -6 -19 -32 5
-22 21 -24 26 -11 34 21 14 30 12 30 -5z m-3564 -120 c0 -14 -4 -25 -8 -25 -5
0 -8 -9 -8 -19 0 -11 -5 -23 -10 -26 -6 -4 -9 -9 -6 -13 2 -4 -6 -16 -17 -27
-16 -16 -19 -17 -14 -3 3 9 11 36 17 60 10 35 35 78 45 78 2 0 2 -11 1 -25z
m3714 -78 c0 -2 -12 -14 -27 -28 l-28 -24 24 28 c23 25 31 32 31 24z m-399
-40 c-10 -9 -11 -8 -5 6 3 10 9 15 12 12 3 -3 0 -11 -7 -18z"/>
<path d="M6582 8875 c6 -14 15 -25 20 -25 5 0 1 11 -8 25 -9 14 -18 25 -20 25
-2 0 2 -11 8 -25z"/>
<path d="M6120 8026 c0 -2 7 -6 15 -10 8 -3 15 -1 15 4 0 6 -7 10 -15 10 -8 0
-15 -2 -15 -4z"/>
<path d="M8076 6568 c-11 -45 -6 -104 18 -180 13 -43 22 -78 19 -78 -3 0 -1
-6 5 -12 5 -7 16 -42 23 -78 7 -36 20 -76 31 -89 10 -13 18 -20 18 -16 0 4 8
1 17 -6 17 -13 17 -13 1 12 -9 14 -18 39 -21 55 -2 16 -6 36 -9 44 -16 46 -46
152 -53 190 -2 8 -4 15 -5 15 -8 0 -6 68 3 103 10 36 9 45 -3 52 -24 15 -37
12 -44 -12z"/>
<path d="M9473 5838 c-3 -7 -1 -8 5 -4 7 4 19 -10 32 -36 11 -24 42 -65 70
-93 27 -27 49 -56 50 -63 0 -28 70 -111 93 -112 4 0 -2 9 -13 20 -11 11 -26
35 -34 54 -8 19 -34 56 -58 82 -24 25 -56 71 -73 102 -29 53 -57 73 -72 50z"/>
<path d="M11970 4816 c0 -2 7 -9 15 -16 13 -11 14 -10 9 4 -5 14 -24 23 -24
12z"/>
<path d="M7109 3152 c-14 -3 -16 -62 -15 -592 1 -323 4 -591 8 -595 9 -10 91
-10 106 -1 7 4 12 2 12 -5 0 -10 3 -10 11 -2 8 8 11 110 10 335 -1 177 -1 332
-1 343 4 85 4 515 0 516 -12 3 -117 4 -131 1z"/>
<path d="M6105 3072 c-27 -3 -33 -10 -54 -65 -38 -100 -112 -290 -124 -317 -5
-14 -11 -29 -13 -35 -1 -5 -31 -84 -66 -175 -36 -91 -78 -201 -93 -244 l-29
-79 -19 44 c-10 24 -20 49 -21 54 -3 10 -9 27 -29 80 -7 17 -12 32 -13 35 0 3
-5 16 -11 30 -51 120 -80 200 -75 204 3 3 0 6 -6 6 -7 0 -11 3 -10 8 0 4 -2
16 -7 27 -4 11 -38 101 -77 200 -38 99 -73 190 -78 203 -9 20 -16 22 -95 22
l-85 0 11 -27 c25 -67 82 -211 96 -242 8 -18 16 -39 18 -45 2 -13 21 -62 35
-91 5 -11 37 -92 71 -180 33 -88 70 -180 81 -204 11 -25 21 -52 23 -60 3 -14
39 -107 65 -168 21 -48 29 -68 32 -82 3 -10 24 -14 82 -14 l78 -1 30 75 c16
41 36 88 44 105 9 17 17 37 18 45 2 8 8 28 15 44 6 17 19 50 28 75 10 25 21
48 26 51 5 3 8 10 8 15 -1 12 26 85 56 152 12 29 23 57 23 61 0 5 15 45 34 89
19 44 32 83 29 86 -4 3 -1 6 5 6 7 0 12 6 12 14 0 8 22 70 50 138 27 68 50
129 50 136 0 6 5 12 12 12 6 0 9 3 5 6 -7 7 -85 11 -132 6z"/>
<path d="M8303 3021 c-4 -3 -9 -11 -10 -18 -7 -37 -13 -75 -19 -128 -3 -33 -8
-62 -11 -65 -2 -2 -41 -5 -85 -5 l-81 0 -1 -62 -1 -61 33 -4 c17 -2 32 0 32 5
0 4 6 5 12 1 7 -5 30 -8 50 -7 21 1 38 -2 39 -5 0 -4 2 -131 3 -282 2 -257 4
-278 24 -320 11 -25 27 -52 34 -61 17 -20 66 -52 87 -57 41 -8 129 -10 161 -4
35 8 35 8 36 65 l2 57 -57 0 c-71 0 -116 25 -129 72 -5 18 -8 146 -8 283 l1
250 65 3 c63 2 114 3 128 1 45 -7 51 0 50 64 l-1 62 -121 0 -121 0 -1 102 c0
57 -3 106 -7 109 -8 9 -94 12 -104 5z"/>
<path d="M6547 2824 c-1 -1 -35 -5 -76 -8 -41 -4 -81 -11 -90 -15 -9 -5 -33
-11 -53 -15 l-38 -7 0 -60 c0 -56 1 -59 23 -54 26 6 69 14 112 21 17 2 71 5
121 6 75 1 99 -3 137 -21 50 -24 66 -52 68 -121 3 -93 11 -86 -103 -86 -221
-1 -338 -42 -398 -139 -42 -68 -44 -179 -5 -256 17 -33 79 -98 96 -100 11 -2
15 -3 69 -18 55 -16 173 -8 227 14 21 9 54 29 74 45 35 28 37 28 42 9 3 -11 4
-29 2 -40 -3 -13 2 -19 16 -20 69 -2 107 -1 116 4 5 3 8 144 7 339 -1 372 -4
390 -70 448 -43 37 -86 56 -153 65 -52 7 -121 12 -124 9z m76 -466 c27 9 109
8 123 -1 7 -4 9 -37 7 -83 -7 -155 -77 -216 -235 -208 -103 6 -151 48 -151
132 0 26 6 60 14 77 20 42 84 74 153 78 31 1 56 7 57 12 0 6 3 5 5 -2 3 -7 14
-9 27 -5z"/>
<path d="M7656 2819 c-160 -25 -263 -135 -258 -278 2 -42 21 -101 38 -119 8
-7 19 -21 26 -30 7 -10 36 -28 65 -40 51 -22 80 -28 178 -38 120 -12 155 -39
161 -124 2 -33 -21 -99 -35 -101 -3 0 -15 -3 -26 -7 -27 -8 -220 -8 -275 1
-43 7 -52 9 -100 23 -18 5 -20 1 -20 -53 l0 -59 55 -18 c120 -37 286 -42 374
-11 68 25 140 94 162 155 35 98 7 219 -63 272 -31 23 -125 61 -144 57 -5 -1
-11 0 -14 1 -3 1 -28 4 -57 5 -114 6 -168 40 -172 108 -5 100 34 129 171 129
79 0 123 -5 193 -18 80 -16 73 -20 72 44 l-2 57 -54 17 c-48 16 -97 23 -201
32 -14 1 -47 -1 -74 -5z"/>
<path d="M9048 2824 c-2 -1 -23 -4 -48 -7 -150 -17 -253 -116 -259 -249 -3
-77 16 -128 65 -175 50 -47 89 -60 239 -78 129 -16 173 -54 163 -142 -7 -56
-22 -78 -66 -92 -54 -18 -248 -8 -349 19 -18 5 -35 5 -37 2 -2 -4 -4 -29 -3
-55 1 -55 3 -58 97 -82 149 -38 299 -27 388 29 34 21 96 87 98 104 0 4 5 16
10 27 11 24 12 139 1 177 -10 37 -62 95 -101 112 -62 28 -64 28 -156 40 -25 3
-64 8 -88 11 -44 5 -105 41 -96 56 2 4 0 10 -6 14 -13 8 -13 54 1 94 17 47 55
63 159 64 52 0 167 -11 200 -19 8 -2 27 -6 42 -10 l28 -6 -3 58 -2 59 -53 18
c-29 9 -78 20 -110 23 -31 2 -69 6 -84 8 -15 2 -29 2 -30 0z"/>
<path d="M11016 2823 c-1 -1 -20 -5 -41 -9 -66 -10 -145 -52 -194 -102 -42
-43 -87 -119 -96 -161 -2 -9 -8 -34 -13 -57 -10 -45 -9 -225 2 -243 4 -6 9
-21 11 -33 18 -95 149 -234 240 -255 11 -2 34 -7 50 -11 68 -16 279 -5 338 17
25 10 31 11 50 11 10 0 14 15 13 58 -1 64 6 60 -96 47 -59 -8 -269 -10 -297
-2 -57 15 -129 77 -140 121 -15 57 -25 127 -19 133 3 4 143 7 309 7 l302 1 -1
65 c-1 97 -17 177 -45 227 -72 129 -159 180 -319 187 -28 1 -52 0 -54 -1z
m181 -152 c56 -32 84 -90 87 -181 l1 -35 -230 0 -230 0 2 25 c11 154 88 219
254 215 58 -2 86 -8 116 -24z"/>
<path d="M11955 2820 c-69 -8 -138 -36 -177 -72 -30 -29 -44 -25 -42 12 3 42
-4 46 -74 45 l-67 -1 -1 -419 0 -420 30 -5 c17 -3 51 -3 75 0 l43 5 2 315 c1
309 1 316 23 346 68 95 301 86 348 -12 14 -30 16 -76 16 -344 l0 -309 32 -3
c17 -2 46 0 64 3 17 4 36 2 41 -3 7 -7 10 98 9 299 0 169 3 319 8 333 14 45
59 83 115 97 37 8 150 3 176 -9 39 -17 71 -48 82 -78 5 -14 10 -156 10 -315 1
-160 1 -299 2 -310 0 -18 6 -20 48 -18 26 1 59 2 73 2 l26 1 -2 333 c-2 182
-5 339 -7 347 -44 144 -205 216 -380 170 -49 -13 -118 -49 -118 -62 0 -4 -5
-8 -11 -8 -6 0 -19 -10 -29 -22 l-17 -22 -31 35 c-36 41 -101 76 -157 85 -22
3 -42 7 -45 8 -3 1 -32 -1 -65 -4z"/>
<path d="M13347 2823 c-2 -1 -25 -5 -50 -8 -102 -10 -220 -92 -268 -188 -40
-77 -53 -137 -52 -242 0 -100 10 -151 43 -223 27 -59 102 -152 123 -152 5 0
21 -9 36 -19 79 -56 300 -65 463 -18 l43 13 3 57 3 57 -38 -7 c-21 -3 -53 -7
-70 -7 -18 -1 -33 -4 -33 -7 0 -3 -55 -5 -122 -4 -102 0 -131 4 -169 22 -74
34 -126 122 -125 212 l1 35 305 0 305 1 -2 80 c-2 98 -9 133 -41 205 -37 85
-103 143 -195 174 -42 14 -152 27 -160 19z m159 -151 c50 -26 82 -87 86 -164
l3 -53 -232 0 -232 -1 5 36 c3 19 8 44 11 55 4 11 8 25 9 32 8 45 74 99 139
113 59 13 169 4 211 -18z"/>
<path d="M14168 2825 c-2 -2 -25 -5 -51 -8 -55 -7 -140 -44 -179 -79 -92 -83
-100 -264 -15 -342 37 -33 105 -65 148 -68 16 -1 29 -5 29 -8 0 -3 29 -6 64
-7 126 -5 172 -45 163 -140 -9 -91 -46 -109 -209 -100 -104 6 -175 16 -198 26
-35 17 -44 7 -45 -47 -1 -62 0 -62 95 -87 149 -38 299 -27 388 29 34 21 96 87
98 104 0 4 5 16 10 27 11 25 12 140 1 177 -10 37 -62 95 -101 112 -63 28 -63
28 -166 41 -30 4 -64 8 -75 10 -11 1 -27 3 -35 4 -8 1 -28 13 -44 27 -24 21
-30 35 -31 72 -4 95 33 123 165 125 52 0 167 -11 200 -19 8 -2 27 -6 43 -10
l27 -6 0 60 0 59 -62 18 c-35 9 -85 19 -113 21 -27 2 -62 6 -77 8 -15 2 -29 2
-30 1z"/>
<path d="M9973 2794 c-2 -6 -3 -35 -1 -64 l3 -53 73 -2 c40 0 75 3 78 7 3 4
15 4 27 -1 12 -4 68 -6 125 -5 56 1 102 0 102 -3 0 -5 -35 -57 -53 -78 -11
-13 -129 -182 -142 -203 -5 -9 -14 -21 -20 -28 -5 -6 -16 -20 -23 -30 -7 -11
-36 -52 -65 -92 -29 -41 -57 -82 -63 -93 -6 -10 -19 -28 -29 -39 -14 -16 -20
-38 -21 -85 l-1 -63 48 -4 c27 -1 49 0 49 4 0 4 10 4 22 -1 13 -4 35 -5 50 0
16 4 28 4 28 -1 0 -4 12 -5 28 -1 15 4 38 5 52 1 14 -4 36 -4 50 0 14 3 40 3
58 -1 17 -4 32 -3 32 2 0 4 10 5 22 0 13 -4 35 -5 50 0 17 5 28 4 28 -2 0 -6
5 -7 11 -3 6 3 27 6 48 6 l37 -1 -1 62 -1 62 -203 2 c-112 1 -205 4 -208 6 -4
5 24 56 38 67 3 3 24 33 47 66 23 34 48 69 57 77 8 9 15 20 15 26 0 6 4 11 9
11 5 0 12 8 15 18 3 9 16 29 28 44 13 15 63 84 113 154 88 125 89 128 90 188
l1 61 -299 0 c-212 0 -301 -3 -304 -11z"/>
<path d="M7537 1275 c-2 -5 -3 -105 -2 -222 l1 -211 -38 34 c-59 53 -101 67
-212 70 -54 1 -106 -1 -115 -6 -9 -4 -33 -15 -53 -23 -50 -22 -115 -82 -141
-131 -12 -23 -22 -43 -22 -46 -1 -3 -7 -25 -14 -49 -21 -75 -28 -202 -15 -290
8 -56 33 -139 44 -146 6 -3 10 -13 10 -22 0 -8 24 -39 54 -68 75 -74 132 -94
261 -92 107 3 155 19 213 72 14 13 27 23 28 22 2 -1 4 -21 5 -43 l3 -40 64 2
c35 0 67 6 71 12 9 14 7 1170 -2 1179 -12 11 -136 10 -140 -2z m-107 -476 c82
-45 105 -110 104 -294 0 -128 -3 -145 -26 -196 -22 -48 -33 -60 -77 -82 -45
-22 -62 -25 -129 -22 -100 5 -103 6 -146 39 -58 44 -79 115 -79 271 0 76 2 95
18 172 10 45 63 102 110 118 50 16 190 13 225 -6z"/>
<path d="M7921 1223 c-46 -20 -61 -77 -31 -122 22 -32 96 -41 128 -15 31 26
39 83 15 112 -18 23 -83 38 -112 25z"/>
<path d="M11769 1123 c0 -16 -2 -37 -4 -48 -3 -11 -7 -45 -11 -75 -3 -30 -8
-58 -11 -62 -2 -4 -40 -7 -83 -5 -47 1 -81 -2 -83 -8 -3 -9 -2 -70 1 -105 2
-12 18 -15 82 -14 53 1 80 -2 81 -10 0 -6 2 -130 4 -276 1 -146 5 -272 7 -280
34 -123 97 -168 235 -168 53 0 86 4 90 11 4 7 8 35 9 63 l0 51 -50 2 c-69 2
-81 5 -101 21 -39 33 -42 57 -43 326 l0 261 101 0 c56 1 112 2 124 2 21 1 23
5 20 63 l-2 61 -123 0 -123 0 2 76 c0 42 1 91 0 109 l-1 32 -60 0 c-59 0 -60
-1 -61 -27z"/>
<path d="M8471 935 c-69 -19 -115 -47 -166 -100 -75 -77 -106 -164 -111 -300
-6 -212 66 -350 224 -427 65 -32 71 -33 192 -33 131 0 175 5 250 27 l45 14 0
54 c0 62 9 58 -100 43 -33 -4 -112 -8 -175 -8 -101 0 -120 3 -159 23 -69 37
-110 97 -117 176 -2 22 -5 45 -8 53 -4 10 54 13 307 15 l312 3 -1 50 c-4 185
-54 298 -162 372 -26 17 -49 31 -52 31 -3 0 -7 1 -10 2 -51 19 -205 22 -269 5z
m209 -119 c78 -19 127 -86 133 -186 l4 -47 -234 0 -234 0 6 46 c7 55 51 151
70 151 7 0 18 7 25 15 7 9 15 14 17 12 2 -3 19 1 37 7 38 13 124 14 176 2z"/>
<path d="M9447 944 c-3 -3 -13 -7 -24 -9 -10 -2 -18 -4 -18 -5 0 -1 -8 -3 -18
-5 -20 -4 -85 -50 -104 -75 -14 -17 -14 -17 -18 30 -1 19 -3 40 -4 45 0 6 -22
9 -48 8 -27 -1 -57 -2 -69 -2 -22 -1 -22 -3 -24 -251 0 -8 1 -33 3 -55 2 -22
-1 -46 -6 -52 -5 -7 -6 -13 -1 -13 11 0 10 -142 0 -159 -4 -6 -4 -11 1 -11 10
0 9 -132 -1 -148 -4 -7 -4 -12 1 -12 4 0 8 -31 7 -70 0 -42 3 -70 10 -72 6 -2
38 -3 71 -3 l60 1 5 309 c5 305 5 311 28 343 32 45 94 74 164 78 116 6 195
-33 216 -106 6 -21 9 -153 9 -328 -2 -253 0 -292 13 -293 60 -5 117 -4 125 2
16 12 12 624 -5 674 -27 85 -73 130 -165 167 -30 12 -198 21 -208 12z"/>
<path d="M10263 931 c-29 -10 -55 -16 -58 -13 -3 3 -5 0 -5 -6 0 -7 -6 -12
-13 -12 -24 0 -124 -103 -146 -150 -39 -86 -49 -134 -46 -242 3 -122 7 -144
44 -223 26 -57 111 -155 134 -155 6 0 18 -6 26 -14 36 -31 125 -46 247 -42
119 4 143 7 227 31 29 8 35 24 35 87 0 36 -2 38 -27 32 -46 -10 -93 -14 -217
-19 -99 -4 -131 -2 -169 13 -70 25 -109 67 -133 142 -3 8 -5 37 -6 63 l-1 48
303 -1 c238 0 302 2 303 12 5 52 3 125 -5 136 -4 6 -6 12 -3 12 10 0 -15 87
-41 140 -34 69 -82 115 -152 148 -73 34 -217 41 -297 13z m217 -115 c77 -18
125 -86 131 -182 l3 -49 -233 -1 -232 -1 5 36 c11 80 20 101 55 140 53 59 163
82 271 57z"/>
<path d="M11098 939 c-9 -5 -24 -10 -35 -12 -40 -6 -112 -58 -142 -103 -31
-48 -48 -104 -36 -123 3 -6 2 -11 -4 -11 -12 0 -2 -63 18 -110 21 -51 80 -98
146 -115 54 -15 60 -15 115 -20 49 -4 85 -10 100 -15 3 -1 9 -2 13 -1 4 1 21
-11 38 -27 25 -23 31 -38 34 -82 3 -49 1 -56 -30 -87 -34 -34 -37 -35 -160
-36 -44 0 -155 15 -203 27 -28 8 -53 11 -56 8 -11 -11 -6 -100 7 -109 13 -12
64 -29 117 -40 43 -9 236 -9 269 0 75 20 149 77 178 136 22 46 23 54 27 123 5
95 -38 165 -124 205 -52 24 -83 31 -165 38 -63 6 -122 20 -141 32 -22 16 -35
56 -33 101 4 78 44 103 161 102 81 -1 143 -5 143 -9 0 -2 14 -4 30 -6 17 -1
46 -6 65 -10 l36 -7 2 56 c1 65 2 64 -110 90 -69 16 -234 19 -260 5z"/>
<path d="M12425 936 c-124 -40 -196 -119 -201 -219 -1 -27 -4 -50 -7 -53 -5
-5 8 -51 27 -94 12 -26 55 -67 91 -86 38 -20 83 -30 175 -39 98 -9 140 -26
162 -63 17 -30 21 -100 5 -120 -5 -6 -6 -12 -3 -12 15 0 -23 -30 -51 -41 -43
-17 -195 -13 -283 6 -14 3 -36 7 -50 9 -14 2 -32 6 -40 8 -11 2 -15 -9 -18
-50 l-3 -52 45 -20 c63 -27 97 -32 221 -36 99 -2 116 0 173 23 34 14 62 29 62
34 0 5 5 9 11 9 15 0 45 36 71 85 24 46 32 145 16 199 -11 34 -88 130 -88 110
0 -5 -4 -3 -8 4 -5 7 -17 14 -28 17 -10 2 -37 9 -59 15 -22 5 -71 13 -110 16
-118 12 -167 46 -164 116 3 70 27 100 89 114 22 4 96 8 110 4 3 0 37 -2 75 -5
39 -2 83 -9 98 -14 57 -22 65 -16 66 43 0 52 -8 66 -41 70 -3 1 -10 4 -14 9
-4 4 -20 7 -36 7 -15 0 -28 3 -28 8 0 13 -223 12 -265 -2z"/>
<path d="M7915 930 l-30 -5 1 -415 c1 -228 2 -417 3 -420 1 -3 32 -5 71 -5 38
0 70 2 71 5 1 3 2 193 3 422 l1 416 -45 4 c-25 2 -58 1 -75 -2z"/>
</g>
</svg>
