<?xml version="1.0" encoding="utf-8"?>
<!-- Generator: Adobe Illustrator 28.0.0, SVG Export Plug-In . SVG Version: 6.00 Build 0)  -->
<svg version="1.1" id="Layer_1" xmlns="http://www.w3.org/2000/svg" xmlns:xlink="http://www.w3.org/1999/xlink" x="0px" y="0px"
	 viewBox="0 0 547.7 130" style="enable-background:new 0 0 547.7 130;" xml:space="preserve">
<style type="text/css">
	.st0{fill:#243E90;}
	.st1{fill:#FFCD05;}
	.st2{fill:#231F20;}
	.st3{fill:#9E1C35;}
	.st4{fill:#FFFFFF;}
</style>
<g>
	<g>
		<rect x="274.3" y="12.8" class="st0" width="96.6" height="64.4"/>
		<path class="st0" d="M322.6,45"/>
	</g>
	<g>
		<polygon class="st1" points="320.5,26.9 322.6,25.4 324.6,26.9 323.8,24.5 325.9,23 323.3,23 322.6,20.5 321.8,23 319.2,23 
			321.3,24.5 		"/>
		<polygon class="st1" points="310,29.7 312,28.2 314,29.7 313.3,27.3 315.3,25.8 312.8,25.8 312,23.4 311.2,25.8 308.7,25.8 
			310.7,27.3 		"/>
		<polygon class="st1" points="304.3,31.1 303.5,33.5 301,33.5 303,35 302.3,37.4 304.3,35.9 306.3,37.4 305.6,35 307.6,33.5 
			305.1,33.5 		"/>
		<polygon class="st1" points="301.5,46.5 303.5,48 302.7,45.6 304.8,44.1 302.2,44.1 301.5,41.6 300.7,44.1 298.1,44.1 300.2,45.6 
			299.4,48 		"/>
		<polygon class="st1" points="305.1,54.6 304.3,52.2 303.5,54.6 301,54.6 303,56.1 302.3,58.5 304.3,57 306.3,58.5 305.6,56.1 
			307.6,54.6 		"/>
		<polygon class="st1" points="312.8,62.4 312,59.9 311.2,62.4 308.7,62.4 310.8,63.9 310,66.3 312,64.8 314.1,66.3 313.3,63.9 
			315.4,62.4 		"/>
		<polygon class="st1" points="323.3,65.2 322.6,62.7 321.8,65.2 319.2,65.2 321.3,66.7 320.5,69.1 322.6,67.6 324.6,69.1 
			323.8,66.7 325.9,65.2 		"/>
		<polygon class="st1" points="333.9,62.4 333.1,59.9 332.3,62.4 329.8,62.4 331.8,63.9 331.1,66.3 333.1,64.8 335.1,66.3 
			334.4,63.9 336.4,62.4 		"/>
		<polygon class="st1" points="341.6,54.6 340.8,52.2 340,54.6 337.5,54.6 339.6,56.1 338.8,58.5 340.8,57 342.9,58.5 342.1,56.1 
			344.2,54.6 		"/>
		<polygon class="st1" points="347,44 344.4,44 343.6,41.6 342.8,44 340.3,44 342.4,45.5 341.6,47.9 343.6,46.4 345.7,47.9 
			344.9,45.5 		"/>
		<polygon class="st1" points="338.8,37.4 340.8,35.9 342.9,37.4 342.1,35 344.2,33.5 341.6,33.5 340.8,31.1 340,33.5 337.5,33.5 
			339.6,35 		"/>
		<polygon class="st1" points="333.1,23.4 332.3,25.8 329.8,25.8 331.9,27.3 331.1,29.7 333.1,28.2 335.2,29.7 334.4,27.3 
			336.5,25.8 333.9,25.8 		"/>
	</g>
</g>
<g>
	<g>
		<path class="st2" d="M388.8,31.7H382v-9.5h6.9V24h-4.4v1.6h4.1v1.8h-4.1v2.3h4.4V31.7z"/>
		<path class="st2" d="M396,31.7h-5.6V30h1.6v-6.1h-1.6v-1.7h5.6v1.7h-1.6V30h1.6V31.7z"/>
		<path class="st2" d="M407.2,31.7h-3l-2.6-3.5h-1.1v3.5H398v-9.5h4.1c0.6,0,1,0,1.4,0.1c0.4,0.1,0.8,0.2,1.1,0.4
			c0.4,0.2,0.6,0.5,0.9,0.8c0.2,0.3,0.3,0.8,0.3,1.3c0,0.7-0.2,1.3-0.5,1.7c-0.3,0.4-0.8,0.8-1.4,1.1L407.2,31.7z M403.3,25.1
			c0-0.2,0-0.4-0.1-0.6c-0.1-0.2-0.3-0.3-0.5-0.4c-0.2-0.1-0.4-0.1-0.6-0.1c-0.2,0-0.5,0-0.8,0h-0.9v2.6h0.8c0.4,0,0.7,0,1-0.1
			c0.3,0,0.5-0.1,0.7-0.3c0.2-0.1,0.3-0.3,0.4-0.4C403.3,25.6,403.3,25.3,403.3,25.1z"/>
		<path class="st2" d="M417.5,26.9c0,1.5-0.4,2.7-1.3,3.6c-0.9,0.9-2.1,1.3-3.6,1.3c-1.5,0-2.7-0.4-3.6-1.3
			c-0.9-0.9-1.3-2.1-1.3-3.6c0-1.5,0.4-2.7,1.3-3.6c0.9-0.9,2.1-1.3,3.6-1.3c1.5,0,2.7,0.4,3.6,1.3C417,24.2,417.5,25.4,417.5,26.9z
			 M414.2,29.3c0.2-0.3,0.4-0.6,0.5-1c0.1-0.4,0.2-0.9,0.2-1.4c0-0.6-0.1-1.1-0.2-1.5c-0.1-0.4-0.3-0.7-0.5-1
			c-0.2-0.3-0.5-0.4-0.7-0.6c-0.3-0.1-0.6-0.2-0.9-0.2c-0.3,0-0.6,0.1-0.9,0.2c-0.3,0.1-0.5,0.3-0.8,0.5c-0.2,0.2-0.4,0.6-0.5,1
			c-0.1,0.4-0.2,0.9-0.2,1.5c0,0.6,0.1,1,0.2,1.4c0.1,0.4,0.3,0.7,0.5,1c0.2,0.3,0.5,0.4,0.7,0.6c0.3,0.1,0.6,0.2,0.9,0.2
			c0.3,0,0.6-0.1,0.9-0.2C413.8,29.8,414,29.6,414.2,29.3z"/>
		<path class="st2" d="M427.2,25.2c0,0.4-0.1,0.8-0.2,1.2c-0.1,0.4-0.4,0.7-0.6,1c-0.4,0.4-0.8,0.7-1.3,0.8c-0.5,0.2-1,0.3-1.7,0.3
			h-1.5v3.1h-2.4v-9.5h4c0.6,0,1.1,0.1,1.5,0.2c0.4,0.1,0.8,0.3,1.1,0.5c0.4,0.3,0.7,0.6,0.9,1C427.1,24.1,427.2,24.6,427.2,25.2z
			 M424.7,25.2c0-0.3-0.1-0.5-0.2-0.7c-0.1-0.2-0.3-0.3-0.5-0.4c-0.3-0.1-0.5-0.2-0.7-0.2c-0.2,0-0.6,0-1,0h-0.4v2.8h0.7
			c0.4,0,0.8,0,1-0.1c0.3-0.1,0.5-0.2,0.7-0.3c0.2-0.1,0.3-0.3,0.3-0.5C424.6,25.7,424.7,25.5,424.7,25.2z"/>
		<path class="st2" d="M437.7,31.7h-2.5l-0.7-1.9H431l-0.7,1.9h-2.5l3.5-9.5h2.8L437.7,31.7z M433.9,28l-1.2-3.4l-1.2,3.4H433.9z"/>
		<path class="st2" d="M446.7,28.7c0,0.9-0.4,1.7-1.2,2.3c-0.8,0.6-1.9,0.9-3.2,0.9c-0.8,0-1.5-0.1-2.1-0.2
			c-0.6-0.1-1.1-0.3-1.6-0.5v-2.3h0.3c0.5,0.4,1.1,0.7,1.7,0.9c0.6,0.2,1.2,0.3,1.8,0.3c0.1,0,0.3,0,0.6,0c0.2,0,0.4-0.1,0.6-0.1
			c0.2-0.1,0.3-0.2,0.5-0.3c0.1-0.1,0.2-0.3,0.2-0.5c0-0.2-0.1-0.4-0.3-0.5c-0.2-0.2-0.4-0.3-0.8-0.3c-0.4-0.1-0.7-0.2-1.1-0.2
			c-0.4-0.1-0.8-0.2-1.1-0.3c-0.8-0.3-1.4-0.6-1.7-1.1c-0.4-0.4-0.5-1-0.5-1.7c0-0.9,0.4-1.6,1.2-2.2c0.8-0.6,1.8-0.8,3.1-0.8
			c0.6,0,1.2,0.1,1.9,0.2c0.6,0.1,1.1,0.3,1.6,0.5v2.2H446c-0.4-0.3-0.9-0.6-1.4-0.8c-0.6-0.2-1.1-0.3-1.7-0.3c-0.2,0-0.4,0-0.6,0
			c-0.2,0-0.4,0.1-0.6,0.2c-0.2,0.1-0.3,0.2-0.4,0.3c-0.1,0.1-0.2,0.3-0.2,0.4c0,0.3,0.1,0.4,0.3,0.6c0.2,0.1,0.6,0.3,1.1,0.4
			c0.3,0.1,0.7,0.1,1,0.2c0.3,0.1,0.7,0.2,1,0.3c0.7,0.2,1.3,0.6,1.6,1C446.5,27.5,446.7,28,446.7,28.7z"/>
		<path class="st2" d="M460.4,28.7c0,0.9-0.4,1.7-1.2,2.3c-0.8,0.6-1.9,0.9-3.2,0.9c-0.8,0-1.5-0.1-2.1-0.2
			c-0.6-0.1-1.1-0.3-1.6-0.5v-2.3h0.3c0.5,0.4,1.1,0.7,1.7,0.9c0.6,0.2,1.2,0.3,1.8,0.3c0.1,0,0.3,0,0.6,0c0.2,0,0.4-0.1,0.6-0.1
			c0.2-0.1,0.3-0.2,0.5-0.3c0.1-0.1,0.2-0.3,0.2-0.5c0-0.2-0.1-0.4-0.3-0.5c-0.2-0.2-0.4-0.3-0.8-0.3c-0.4-0.1-0.7-0.2-1.1-0.2
			c-0.4-0.1-0.8-0.2-1.1-0.3c-0.8-0.3-1.4-0.6-1.7-1.1c-0.4-0.4-0.5-1-0.5-1.7c0-0.9,0.4-1.6,1.2-2.2c0.8-0.6,1.8-0.8,3.1-0.8
			c0.6,0,1.2,0.1,1.9,0.2c0.6,0.1,1.1,0.3,1.6,0.5v2.2h-0.3c-0.4-0.3-0.9-0.6-1.4-0.8c-0.6-0.2-1.1-0.3-1.7-0.3c-0.2,0-0.4,0-0.6,0
			c-0.2,0-0.4,0.1-0.6,0.2c-0.2,0.1-0.3,0.2-0.4,0.3c-0.1,0.1-0.2,0.3-0.2,0.4c0,0.3,0.1,0.4,0.3,0.6c0.2,0.1,0.6,0.3,1.1,0.4
			c0.3,0.1,0.7,0.1,1,0.2c0.3,0.1,0.7,0.2,1,0.3c0.7,0.2,1.3,0.6,1.6,1C460.2,27.5,460.4,28,460.4,28.7z"/>
		<path class="st2" d="M470.9,31.7h-2.5l-0.7-1.9h-3.5l-0.7,1.9H461l3.5-9.5h2.8L470.9,31.7z M467.1,28l-1.2-3.4l-1.2,3.4H467.1z"/>
		<path class="st2" d="M480.8,22.2l-3.5,9.5h-2.7l-3.5-9.5h2.6l2.3,6.7l2.3-6.7H480.8z"/>
		<path class="st2" d="M487.3,31.7h-5.6V30h1.6v-6.1h-1.6v-1.7h5.6v1.7h-1.6V30h1.6V31.7z"/>
		<path class="st2" d="M496.2,31.7h-6.9v-9.5h6.9V24h-4.4v1.6h4.1v1.8h-4.1v2.3h4.4V31.7z"/>
		<path class="st2" d="M506.9,31.7h-2.4l-4-6.5v6.5h-2.2v-9.5h2.9l3.5,5.4v-5.4h2.2V31.7z"/>
		<path class="st2" d="M514.5,31.7h-5.6V30h1.6v-6.1h-1.6v-1.7h5.6v1.7h-1.6V30h1.6V31.7z M514.2,20.7h-5.1v-1.3h5.1V20.7z"/>
		<path class="st2" d="M524.6,28.8c0,0.5-0.1,0.9-0.3,1.2c-0.2,0.4-0.4,0.7-0.8,0.9c-0.4,0.3-0.8,0.5-1.2,0.6
			c-0.4,0.1-1,0.2-1.7,0.2h-4.1v-9.5h3.7c0.8,0,1.3,0,1.7,0.1c0.4,0.1,0.7,0.2,1.1,0.3c0.4,0.2,0.6,0.4,0.8,0.7
			c0.2,0.3,0.3,0.7,0.3,1.1c0,0.5-0.1,0.9-0.4,1.2c-0.2,0.4-0.6,0.6-1,0.8v0.1c0.6,0.1,1.1,0.4,1.5,0.8
			C524.4,27.6,524.6,28.1,524.6,28.8z M521.4,24.8c0-0.2,0-0.3-0.1-0.5c-0.1-0.2-0.2-0.3-0.4-0.4c-0.2-0.1-0.4-0.1-0.7-0.1
			c-0.3,0-0.6,0-1.1,0h-0.2v2h0.4c0.4,0,0.7,0,1,0c0.3,0,0.5-0.1,0.6-0.1c0.2-0.1,0.4-0.2,0.4-0.4C521.4,25.2,521.4,25.1,521.4,24.8
			z M522,28.7c0-0.3-0.1-0.5-0.2-0.7c-0.1-0.2-0.3-0.3-0.6-0.4c-0.2-0.1-0.5-0.1-0.8-0.1c-0.3,0-0.7,0-1.1,0h-0.5v2.4h0.2
			c0.7,0,1.2,0,1.5,0c0.3,0,0.6-0.1,0.8-0.2c0.3-0.1,0.4-0.2,0.5-0.4C522,29.1,522,28.9,522,28.7z"/>
		<path class="st2" d="M535.2,31.7h-2.5l-0.7-1.9h-3.5l-0.7,1.9h-2.5l3.5-9.5h2.8L535.2,31.7z M531.4,28l-1.2-3.4l-1.2,3.4H531.4z"
			/>
	</g>
</g>
<g>
	<g>
		<path class="st2" d="M388.3,54.1H382v-9.5h6.3v1.1h-5v2.6h5v1.1h-5V53h5V54.1z"/>
		<path class="st2" d="M391.5,45.8h-1.4v-1.2h1.4V45.8z M391.4,54.1h-1.2V47h1.2V54.1z"/>
		<path class="st2" d="M398.2,48.3L398.2,48.3c-0.2,0-0.4-0.1-0.6-0.1c-0.2,0-0.4,0-0.6,0c-0.4,0-0.7,0.1-1.1,0.2
			c-0.3,0.2-0.7,0.4-1,0.6v5.1h-1.2V47h1.2v1.1c0.5-0.4,0.9-0.7,1.3-0.8c0.4-0.2,0.7-0.2,1.1-0.2c0.2,0,0.4,0,0.5,0
			c0.1,0,0.2,0,0.4,0.1V48.3z"/>
		<path class="st2" d="M405.4,50.6c0,1.2-0.3,2.1-0.9,2.7c-0.6,0.7-1.4,1-2.4,1c-1,0-1.8-0.3-2.4-1c-0.6-0.7-0.9-1.6-0.9-2.7
			s0.3-2.1,0.9-2.8c0.6-0.7,1.4-1,2.4-1c1,0,1.8,0.3,2.4,1C405.1,48.5,405.4,49.4,405.4,50.6z M404.2,50.6c0-0.9-0.2-1.6-0.5-2.1
			c-0.4-0.4-0.9-0.7-1.5-0.7c-0.7,0-1.2,0.2-1.5,0.7c-0.4,0.4-0.5,1.1-0.5,2.1c0,0.9,0.2,1.6,0.5,2c0.4,0.5,0.9,0.7,1.5,0.7
			c0.6,0,1.1-0.2,1.5-0.7C404,52.2,404.2,51.5,404.2,50.6z"/>
		<path class="st2" d="M413.6,50.5c0,0.6-0.1,1.1-0.2,1.6c-0.2,0.5-0.4,0.9-0.7,1.2c-0.3,0.3-0.6,0.6-1,0.7
			c-0.4,0.2-0.8,0.3-1.2,0.3c-0.4,0-0.7,0-1-0.1c-0.3-0.1-0.6-0.2-0.9-0.4v3h-1.2V47h1.2v0.7c0.3-0.3,0.7-0.5,1.1-0.7
			c0.4-0.2,0.8-0.3,1.3-0.3c0.9,0,1.5,0.3,2,1C413.3,48.4,413.6,49.3,413.6,50.5z M412.3,50.5c0-0.9-0.1-1.5-0.4-1.9
			c-0.3-0.4-0.7-0.6-1.4-0.6c-0.3,0-0.7,0.1-1,0.2c-0.3,0.1-0.7,0.3-1,0.6v4c0.3,0.2,0.6,0.3,0.9,0.3c0.2,0.1,0.5,0.1,0.8,0.1
			c0.7,0,1.2-0.2,1.6-0.7C412.1,52.1,412.3,51.4,412.3,50.5z"/>
		<path class="st2" d="M421,54.1h-1.2v-0.8c-0.1,0.1-0.3,0.2-0.4,0.3c-0.2,0.1-0.4,0.2-0.5,0.3c-0.2,0.1-0.4,0.2-0.7,0.2
			c-0.3,0.1-0.6,0.1-0.9,0.1c-0.6,0-1.2-0.2-1.6-0.6c-0.4-0.4-0.7-1-0.7-1.6c0-0.5,0.1-1,0.3-1.3c0.2-0.3,0.6-0.6,1-0.8
			c0.4-0.2,1-0.3,1.6-0.4c0.6-0.1,1.3-0.1,2-0.2v-0.2c0-0.3,0-0.5-0.1-0.7c-0.1-0.2-0.2-0.3-0.4-0.4c-0.2-0.1-0.4-0.2-0.6-0.2
			c-0.2,0-0.5-0.1-0.7-0.1c-0.3,0-0.7,0-1.1,0.1c-0.4,0.1-0.8,0.2-1.2,0.4h-0.1v-1.2c0.2-0.1,0.6-0.1,1-0.2c0.4-0.1,0.9-0.1,1.3-0.1
			c0.5,0,0.9,0,1.3,0.1c0.4,0.1,0.7,0.2,1,0.4c0.3,0.2,0.5,0.4,0.6,0.8c0.1,0.3,0.2,0.7,0.2,1.2V54.1z M419.8,52.4v-2
			c-0.4,0-0.8,0.1-1.3,0.1c-0.5,0-0.9,0.1-1.2,0.2c-0.3,0.1-0.6,0.2-0.8,0.5c-0.2,0.2-0.3,0.5-0.3,0.9c0,0.4,0.1,0.7,0.4,0.9
			c0.2,0.2,0.6,0.3,1.1,0.3c0.4,0,0.8-0.1,1.2-0.2C419.1,52.8,419.5,52.6,419.8,52.4z"/>
		<path class="st2" d="M428.4,52.1c0,0.7-0.3,1.2-0.8,1.6c-0.5,0.4-1.3,0.6-2.2,0.6c-0.5,0-1-0.1-1.5-0.2c-0.4-0.1-0.8-0.3-1.1-0.4
			v-1.3h0.1c0.4,0.3,0.8,0.5,1.3,0.7c0.5,0.2,0.9,0.3,1.3,0.3c0.5,0,0.9-0.1,1.2-0.3c0.3-0.2,0.4-0.4,0.4-0.8c0-0.3-0.1-0.5-0.2-0.6
			c-0.2-0.1-0.5-0.3-0.9-0.4c-0.2,0-0.4-0.1-0.7-0.1c-0.3-0.1-0.5-0.1-0.7-0.2c-0.6-0.2-1.1-0.4-1.3-0.7c-0.3-0.3-0.4-0.7-0.4-1.2
			c0-0.3,0.1-0.6,0.2-0.8c0.1-0.3,0.3-0.5,0.6-0.7c0.2-0.2,0.5-0.4,0.9-0.5c0.4-0.1,0.8-0.2,1.2-0.2c0.4,0,0.9,0.1,1.3,0.2
			c0.4,0.1,0.8,0.2,1.1,0.4v1.3H428c-0.3-0.2-0.7-0.4-1.1-0.6c-0.4-0.2-0.9-0.2-1.3-0.2c-0.4,0-0.8,0.1-1.1,0.3
			c-0.3,0.2-0.5,0.4-0.5,0.7c0,0.3,0.1,0.5,0.3,0.7c0.2,0.1,0.5,0.3,0.9,0.4c0.2,0.1,0.5,0.1,0.7,0.2c0.3,0.1,0.5,0.1,0.7,0.1
			c0.6,0.1,1,0.3,1.3,0.7C428.2,51.1,428.4,51.6,428.4,52.1z"/>
		<path class="st2" d="M442.6,54.1H441l-3.2-3.8H436v3.8h-1.3v-9.5h2.7c0.6,0,1.1,0,1.4,0.1c0.4,0.1,0.7,0.2,1,0.4
			c0.3,0.2,0.6,0.5,0.8,0.8c0.2,0.3,0.3,0.7,0.3,1.3c0,0.7-0.2,1.3-0.5,1.7c-0.3,0.5-0.8,0.8-1.4,1L442.6,54.1z M439.7,47.3
			c0-0.3,0-0.5-0.1-0.7c-0.1-0.2-0.3-0.4-0.5-0.5c-0.2-0.1-0.4-0.2-0.7-0.3c-0.3,0-0.5-0.1-0.9-0.1H436v3.6h1.3c0.4,0,0.7,0,1-0.1
			c0.3-0.1,0.6-0.2,0.8-0.4c0.2-0.2,0.3-0.4,0.4-0.6C439.6,48,439.7,47.7,439.7,47.3z"/>
		<path class="st2" d="M449.4,50.7h-5.2c0,0.4,0.1,0.8,0.2,1.1c0.1,0.3,0.3,0.6,0.5,0.8c0.2,0.2,0.5,0.4,0.8,0.5
			c0.3,0.1,0.6,0.2,1,0.2c0.5,0,1-0.1,1.5-0.3c0.5-0.2,0.8-0.4,1-0.6h0.1v1.3c-0.4,0.2-0.8,0.3-1.2,0.4c-0.4,0.1-0.9,0.2-1.3,0.2
			c-1.2,0-2.1-0.3-2.8-1c-0.7-0.6-1-1.5-1-2.7c0-1.2,0.3-2.1,1-2.8c0.6-0.7,1.5-1,2.5-1c1,0,1.7,0.3,2.2,0.8
			c0.5,0.6,0.8,1.4,0.8,2.4V50.7z M448.2,49.8c0-0.6-0.2-1.1-0.5-1.5c-0.3-0.3-0.8-0.5-1.4-0.5c-0.6,0-1.2,0.2-1.5,0.6
			c-0.4,0.4-0.6,0.8-0.6,1.4H448.2z"/>
		<path class="st2" d="M457,53.3c0,1.2-0.3,2.1-0.8,2.7c-0.5,0.6-1.4,0.8-2.5,0.8c-0.4,0-0.7,0-1.1-0.1c-0.4-0.1-0.7-0.1-1.1-0.2
			v-1.2h0.1c0.2,0.1,0.5,0.2,0.9,0.3c0.4,0.1,0.9,0.2,1.3,0.2c0.4,0,0.7,0,1-0.1c0.3-0.1,0.5-0.2,0.6-0.4c0.1-0.2,0.3-0.4,0.3-0.6
			c0.1-0.2,0.1-0.5,0.1-0.8v-0.7c-0.4,0.3-0.7,0.5-1,0.6c-0.3,0.1-0.7,0.2-1.3,0.2c-0.9,0-1.5-0.3-2-0.9c-0.5-0.6-0.7-1.5-0.7-2.6
			c0-0.6,0.1-1.1,0.3-1.6c0.2-0.4,0.4-0.8,0.7-1.2c0.3-0.3,0.6-0.5,1-0.7c0.4-0.2,0.8-0.3,1.2-0.3c0.4,0,0.8,0,1,0.1
			c0.3,0.1,0.6,0.2,0.9,0.4l0.1-0.3h1.1V53.3z M455.8,52.2v-3.9c-0.3-0.1-0.6-0.2-0.9-0.3c-0.3-0.1-0.5-0.1-0.8-0.1
			c-0.7,0-1.2,0.2-1.6,0.7c-0.4,0.4-0.6,1.1-0.6,1.9c0,0.8,0.1,1.4,0.4,1.8c0.3,0.4,0.7,0.6,1.4,0.6c0.3,0,0.7-0.1,1-0.2
			C455.2,52.6,455.5,52.4,455.8,52.2z M455.7,43.4l-1.1,2.4H453l1.7-2.4H455.7z"/>
		<path class="st2" d="M460.6,45.8h-1.4v-1.2h1.4V45.8z M460.6,54.1h-1.2V47h1.2V54.1z"/>
		<path class="st2" d="M469,50.6c0,1.2-0.3,2.1-0.9,2.7c-0.6,0.7-1.4,1-2.4,1c-1,0-1.8-0.3-2.4-1c-0.6-0.7-0.9-1.6-0.9-2.7
			s0.3-2.1,0.9-2.8c0.6-0.7,1.4-1,2.4-1c1,0,1.8,0.3,2.4,1C468.7,48.5,469,49.4,469,50.6z M467.8,50.6c0-0.9-0.2-1.6-0.5-2.1
			c-0.4-0.4-0.9-0.7-1.5-0.7c-0.7,0-1.2,0.2-1.5,0.7c-0.4,0.4-0.5,1.1-0.5,2.1c0,0.9,0.2,1.6,0.5,2c0.4,0.5,0.9,0.7,1.5,0.7
			c0.6,0,1.1-0.2,1.5-0.7C467.6,52.2,467.8,51.5,467.8,50.6z"/>
		<path class="st2" d="M476.8,54.1h-1.2v-4.1c0-0.3,0-0.6-0.1-0.9c0-0.3-0.1-0.5-0.2-0.7c-0.1-0.2-0.3-0.3-0.5-0.4
			c-0.2-0.1-0.5-0.1-0.8-0.1c-0.3,0-0.7,0.1-1,0.2c-0.4,0.2-0.7,0.4-1,0.6v5.3h-1.2V47h1.2v0.8c0.4-0.3,0.8-0.6,1.2-0.7
			c0.4-0.2,0.8-0.3,1.2-0.3c0.8,0,1.4,0.2,1.8,0.7c0.4,0.5,0.6,1.1,0.6,2V54.1z"/>
		<path class="st2" d="M484.7,54.1h-1.2v-0.8c-0.1,0.1-0.3,0.2-0.4,0.3c-0.2,0.1-0.4,0.2-0.5,0.3c-0.2,0.1-0.4,0.2-0.7,0.2
			c-0.3,0.1-0.6,0.1-0.9,0.1c-0.6,0-1.2-0.2-1.6-0.6c-0.4-0.4-0.7-1-0.7-1.6c0-0.5,0.1-1,0.3-1.3c0.2-0.3,0.6-0.6,1-0.8
			c0.4-0.2,1-0.3,1.6-0.4c0.6-0.1,1.3-0.1,2-0.2v-0.2c0-0.3,0-0.5-0.1-0.7c-0.1-0.2-0.2-0.3-0.4-0.4c-0.2-0.1-0.4-0.2-0.6-0.2
			c-0.2,0-0.5-0.1-0.7-0.1c-0.3,0-0.7,0-1.1,0.1c-0.4,0.1-0.8,0.2-1.2,0.4h-0.1v-1.2c0.2-0.1,0.6-0.1,1-0.2c0.4-0.1,0.9-0.1,1.3-0.1
			c0.5,0,0.9,0,1.3,0.1c0.4,0.1,0.7,0.2,1,0.4c0.3,0.2,0.5,0.4,0.6,0.8c0.1,0.3,0.2,0.7,0.2,1.2V54.1z M484.2,45.6h-4.7v-1h4.7V45.6
			z M483.5,52.4v-2c-0.4,0-0.8,0.1-1.3,0.1c-0.5,0-0.9,0.1-1.2,0.2c-0.3,0.1-0.6,0.2-0.8,0.5c-0.2,0.2-0.3,0.5-0.3,0.9
			c0,0.4,0.1,0.7,0.4,0.9c0.2,0.2,0.6,0.3,1.1,0.3c0.4,0,0.8-0.1,1.2-0.2C482.9,52.8,483.2,52.6,483.5,52.4z"/>
		<path class="st2" d="M488.2,54.1H487v-9.9h1.2V54.1z"/>
		<path class="st2" d="M496.1,54.1h-1.2v-0.8c-0.1,0.1-0.3,0.2-0.4,0.3c-0.2,0.1-0.4,0.2-0.5,0.3c-0.2,0.1-0.4,0.2-0.7,0.2
			c-0.3,0.1-0.6,0.1-0.9,0.1c-0.6,0-1.2-0.2-1.6-0.6c-0.4-0.4-0.7-1-0.7-1.6c0-0.5,0.1-1,0.3-1.3c0.2-0.3,0.6-0.6,1-0.8
			c0.4-0.2,1-0.3,1.6-0.4c0.6-0.1,1.3-0.1,2-0.2v-0.2c0-0.3,0-0.5-0.1-0.7c-0.1-0.2-0.2-0.3-0.4-0.4c-0.2-0.1-0.4-0.2-0.6-0.2
			c-0.2,0-0.5-0.1-0.7-0.1c-0.3,0-0.7,0-1.1,0.1c-0.4,0.1-0.8,0.2-1.2,0.4h-0.1v-1.2c0.2-0.1,0.6-0.1,1-0.2c0.4-0.1,0.9-0.1,1.3-0.1
			c0.5,0,0.9,0,1.3,0.1c0.4,0.1,0.7,0.2,1,0.4c0.3,0.2,0.5,0.4,0.6,0.8c0.1,0.3,0.2,0.7,0.2,1.2V54.1z M495.7,45.6h-4.7v-1h4.7V45.6
			z M494.9,52.4v-2c-0.4,0-0.8,0.1-1.3,0.1c-0.5,0-0.9,0.1-1.2,0.2c-0.3,0.1-0.6,0.2-0.8,0.5c-0.2,0.2-0.3,0.5-0.3,0.9
			c0,0.4,0.1,0.7,0.4,0.9c0.2,0.2,0.6,0.3,1.1,0.3c0.4,0,0.8-0.1,1.2-0.2C494.3,52.8,494.6,52.6,494.9,52.4z"/>
		<path class="st2" d="M503.5,52.1c0,0.7-0.3,1.2-0.8,1.6c-0.5,0.4-1.3,0.6-2.2,0.6c-0.5,0-1-0.1-1.5-0.2c-0.4-0.1-0.8-0.3-1.1-0.4
			v-1.3h0.1c0.4,0.3,0.8,0.5,1.3,0.7c0.5,0.2,0.9,0.3,1.3,0.3c0.5,0,0.9-0.1,1.2-0.3c0.3-0.2,0.4-0.4,0.4-0.8c0-0.3-0.1-0.5-0.2-0.6
			c-0.2-0.1-0.5-0.3-0.9-0.4c-0.2,0-0.4-0.1-0.7-0.1c-0.3-0.1-0.5-0.1-0.7-0.2c-0.6-0.2-1.1-0.4-1.3-0.7c-0.3-0.3-0.4-0.7-0.4-1.2
			c0-0.3,0.1-0.6,0.2-0.8c0.1-0.3,0.3-0.5,0.6-0.7c0.2-0.2,0.5-0.4,0.9-0.5c0.4-0.1,0.8-0.2,1.2-0.2c0.4,0,0.9,0.1,1.3,0.2
			c0.4,0.1,0.8,0.2,1.1,0.4v1.3h-0.1c-0.3-0.2-0.7-0.4-1.1-0.6c-0.4-0.2-0.9-0.2-1.3-0.2c-0.4,0-0.8,0.1-1.1,0.3
			c-0.3,0.2-0.5,0.4-0.5,0.7c0,0.3,0.1,0.5,0.3,0.7c0.2,0.1,0.5,0.3,0.9,0.4c0.2,0.1,0.5,0.1,0.7,0.2c0.3,0.1,0.5,0.1,0.7,0.1
			c0.6,0.1,1,0.3,1.3,0.7C503.3,51.1,503.5,51.6,503.5,52.1z"/>
		<path class="st2" d="M387.5,69.8h-1.2V69c-0.1,0.1-0.3,0.2-0.4,0.3c-0.2,0.1-0.4,0.2-0.5,0.3c-0.2,0.1-0.4,0.2-0.7,0.2
			c-0.3,0.1-0.6,0.1-0.9,0.1c-0.6,0-1.2-0.2-1.6-0.6c-0.4-0.4-0.7-1-0.7-1.6c0-0.5,0.1-1,0.3-1.3c0.2-0.3,0.6-0.6,1-0.8
			c0.4-0.2,1-0.3,1.6-0.4c0.6-0.1,1.3-0.1,2-0.2v-0.2c0-0.3,0-0.5-0.1-0.7c-0.1-0.2-0.2-0.3-0.4-0.4c-0.2-0.1-0.4-0.2-0.6-0.2
			c-0.2,0-0.5-0.1-0.7-0.1c-0.3,0-0.7,0-1.1,0.1c-0.4,0.1-0.8,0.2-1.2,0.4h-0.1v-1.2c0.2-0.1,0.6-0.1,1-0.2c0.4-0.1,0.9-0.1,1.3-0.1
			c0.5,0,0.9,0,1.3,0.1c0.4,0.1,0.7,0.2,1,0.4c0.3,0.2,0.5,0.4,0.6,0.8c0.1,0.3,0.2,0.7,0.2,1.2V69.8z M386.3,68.1v-2
			c-0.4,0-0.8,0.1-1.3,0.1c-0.5,0-0.9,0.1-1.2,0.2c-0.3,0.1-0.6,0.2-0.8,0.5c-0.2,0.2-0.3,0.5-0.3,0.9c0,0.4,0.1,0.7,0.4,0.9
			c0.2,0.2,0.6,0.3,1.1,0.3c0.4,0,0.8-0.1,1.2-0.2C385.7,68.5,386,68.3,386.3,68.1z"/>
		<path class="st2" d="M393.5,69.7c-0.2,0.1-0.5,0.1-0.7,0.1c-0.3,0-0.5,0.1-0.7,0.1c-0.7,0-1.3-0.2-1.7-0.6c-0.4-0.4-0.6-1-0.6-1.9
			v-3.8H389v-1h0.8v-2h1.2v2h2.5v1H391v3.2c0,0.4,0,0.7,0,0.9c0,0.2,0.1,0.4,0.2,0.6c0.1,0.2,0.2,0.3,0.4,0.4
			c0.2,0.1,0.4,0.1,0.7,0.1c0.2,0,0.4,0,0.6-0.1c0.2-0.1,0.4-0.1,0.5-0.1h0.1V69.7z"/>
		<path class="st2" d="M398.6,69.7c-0.2,0.1-0.5,0.1-0.7,0.1c-0.3,0-0.5,0.1-0.7,0.1c-0.7,0-1.3-0.2-1.7-0.6c-0.4-0.4-0.6-1-0.6-1.9
			v-3.8h-0.8v-1h0.8v-2h1.2v2h2.5v1h-2.5v3.2c0,0.4,0,0.7,0,0.9c0,0.2,0.1,0.4,0.2,0.6c0.1,0.2,0.2,0.3,0.4,0.4
			c0.2,0.1,0.4,0.1,0.7,0.1c0.2,0,0.4,0,0.6-0.1c0.2-0.1,0.4-0.1,0.5-0.1h0.1V69.7z"/>
		<path class="st2" d="M402.5,61.3h-3.6v-1h3.6V61.3z M401.3,69.8h-1.2v-7.1h1.2V69.8z"/>
		<path class="st2" d="M408.8,67.8c0,0.7-0.3,1.2-0.8,1.6c-0.5,0.4-1.3,0.6-2.2,0.6c-0.5,0-1-0.1-1.5-0.2c-0.4-0.1-0.8-0.3-1.1-0.4
			V68h0.1c0.4,0.3,0.8,0.5,1.3,0.7c0.5,0.2,0.9,0.3,1.3,0.3c0.5,0,0.9-0.1,1.2-0.3c0.3-0.2,0.4-0.4,0.4-0.8c0-0.3-0.1-0.5-0.2-0.6
			c-0.2-0.1-0.5-0.3-0.9-0.4c-0.2,0-0.4-0.1-0.7-0.1c-0.3-0.1-0.5-0.1-0.7-0.2c-0.6-0.2-1.1-0.4-1.3-0.7c-0.3-0.3-0.4-0.7-0.4-1.2
			c0-0.3,0.1-0.6,0.2-0.8c0.1-0.3,0.3-0.5,0.6-0.7c0.2-0.2,0.5-0.4,0.9-0.5c0.4-0.1,0.8-0.2,1.2-0.2c0.4,0,0.9,0.1,1.3,0.2
			c0.4,0.1,0.8,0.2,1.1,0.4v1.3h-0.1c-0.3-0.2-0.7-0.4-1.1-0.6c-0.4-0.2-0.9-0.2-1.3-0.2c-0.4,0-0.8,0.1-1.1,0.3
			c-0.3,0.2-0.5,0.4-0.5,0.7c0,0.3,0.1,0.5,0.3,0.7c0.2,0.1,0.5,0.3,0.9,0.4c0.2,0.1,0.5,0.1,0.7,0.2c0.3,0.1,0.5,0.1,0.7,0.1
			c0.6,0.1,1,0.3,1.3,0.7C408.6,66.8,408.8,67.2,408.8,67.8z"/>
		<path class="st2" d="M414.2,69.7c-0.2,0.1-0.5,0.1-0.7,0.1c-0.3,0-0.5,0.1-0.7,0.1c-0.7,0-1.3-0.2-1.7-0.6c-0.4-0.4-0.6-1-0.6-1.9
			v-3.8h-0.8v-1h0.8v-2h1.2v2h2.5v1h-2.5v3.2c0,0.4,0,0.7,0,0.9c0,0.2,0.1,0.4,0.2,0.6c0.1,0.2,0.2,0.3,0.4,0.4
			c0.2,0.1,0.4,0.1,0.7,0.1c0.2,0,0.4,0,0.6-0.1c0.2-0.1,0.4-0.1,0.5-0.1h0.1V69.7z"/>
		<path class="st2" d="M418,61.3h-3.6v-1h3.6V61.3z M416.8,69.8h-1.2v-7.1h1.2V69.8z"/>
		<path class="st2" d="M425.5,66.2c0,0.6-0.1,1.1-0.3,1.6c-0.2,0.5-0.4,0.9-0.7,1.2c-0.3,0.3-0.6,0.6-1,0.8
			c-0.4,0.2-0.8,0.3-1.2,0.3c-0.4,0-0.8,0-1.1-0.1c-0.3-0.1-0.6-0.2-0.9-0.4l-0.1,0.3h-1.1v-9.9h1.2v3.5c0.3-0.3,0.7-0.5,1.1-0.7
			c0.4-0.2,0.8-0.3,1.3-0.3c0.8,0,1.5,0.3,2,1C425.2,64.1,425.5,65,425.5,66.2z M424.2,66.2c0-0.9-0.1-1.5-0.4-1.9
			c-0.3-0.4-0.7-0.7-1.4-0.7c-0.3,0-0.7,0.1-1.1,0.2c-0.4,0.2-0.7,0.3-1,0.6v4.1c0.3,0.2,0.6,0.3,0.9,0.3c0.2,0.1,0.5,0.1,0.8,0.1
			c0.7,0,1.2-0.2,1.6-0.7C424,67.8,424.2,67.2,424.2,66.2z"/>
		<path class="st2" d="M432.9,69.8h-1.2V69c-0.1,0.1-0.3,0.2-0.4,0.3c-0.2,0.1-0.4,0.2-0.5,0.3c-0.2,0.1-0.4,0.2-0.7,0.2
			c-0.3,0.1-0.6,0.1-0.9,0.1c-0.6,0-1.2-0.2-1.6-0.6c-0.4-0.4-0.7-1-0.7-1.6c0-0.5,0.1-1,0.3-1.3c0.2-0.3,0.6-0.6,1-0.8
			c0.4-0.2,1-0.3,1.6-0.4c0.6-0.1,1.3-0.1,2-0.2v-0.2c0-0.3,0-0.5-0.1-0.7c-0.1-0.2-0.2-0.3-0.4-0.4c-0.2-0.1-0.4-0.2-0.6-0.2
			c-0.2,0-0.5-0.1-0.7-0.1c-0.3,0-0.7,0-1.1,0.1c-0.4,0.1-0.8,0.2-1.2,0.4h-0.1v-1.2c0.2-0.1,0.6-0.1,1-0.2c0.4-0.1,0.9-0.1,1.3-0.1
			c0.5,0,0.9,0,1.3,0.1c0.4,0.1,0.7,0.2,1,0.4c0.3,0.2,0.5,0.4,0.6,0.8c0.1,0.3,0.2,0.7,0.2,1.2V69.8z M431.7,68.1v-2
			c-0.4,0-0.8,0.1-1.3,0.1c-0.5,0-0.9,0.1-1.2,0.2c-0.3,0.1-0.6,0.2-0.8,0.5c-0.2,0.2-0.3,0.5-0.3,0.9c0,0.4,0.1,0.7,0.4,0.9
			c0.2,0.2,0.6,0.3,1.1,0.3c0.4,0,0.8-0.1,1.2-0.2C431.1,68.5,431.4,68.3,431.7,68.1z"/>
		<path class="st2" d="M440.3,67.8c0,0.7-0.3,1.2-0.8,1.6c-0.5,0.4-1.3,0.6-2.2,0.6c-0.5,0-1-0.1-1.5-0.2c-0.4-0.1-0.8-0.3-1.1-0.4
			V68h0.1c0.4,0.3,0.8,0.5,1.3,0.7c0.5,0.2,0.9,0.3,1.3,0.3c0.5,0,0.9-0.1,1.2-0.3c0.3-0.2,0.4-0.4,0.4-0.8c0-0.3-0.1-0.5-0.2-0.6
			c-0.2-0.1-0.5-0.3-0.9-0.4c-0.2,0-0.4-0.1-0.7-0.1c-0.3-0.1-0.5-0.1-0.7-0.2c-0.6-0.2-1.1-0.4-1.3-0.7c-0.3-0.3-0.4-0.7-0.4-1.2
			c0-0.3,0.1-0.6,0.2-0.8c0.1-0.3,0.3-0.5,0.6-0.7c0.2-0.2,0.5-0.4,0.9-0.5c0.4-0.1,0.8-0.2,1.2-0.2c0.4,0,0.9,0.1,1.3,0.2
			c0.4,0.1,0.8,0.2,1.1,0.4v1.3h-0.1c-0.3-0.2-0.7-0.4-1.1-0.6c-0.4-0.2-0.9-0.2-1.3-0.2c-0.4,0-0.8,0.1-1.1,0.3
			c-0.3,0.2-0.5,0.4-0.5,0.7c0,0.3,0.1,0.5,0.3,0.7c0.2,0.1,0.5,0.3,0.9,0.4c0.2,0.1,0.5,0.1,0.7,0.2c0.3,0.1,0.5,0.1,0.7,0.1
			c0.6,0.1,1,0.3,1.3,0.7C440.1,66.8,440.3,67.2,440.3,67.8z"/>
		<path class="st2" d="M450.4,61L450.4,61c-0.2,0-0.4-0.1-0.6-0.1c-0.2,0-0.4-0.1-0.6-0.1c-0.5,0-0.9,0.1-1.1,0.3
			c-0.2,0.2-0.3,0.6-0.3,1.2v0.2h2.2v1h-2.1v6.1h-1.2v-6.1h-0.8v-1h0.8v-0.2c0-0.8,0.2-1.5,0.6-1.9c0.4-0.5,1-0.7,1.8-0.7
			c0.3,0,0.5,0,0.7,0c0.2,0,0.4,0.1,0.6,0.1V61z"/>
		<path class="st2" d="M457.2,66.2c0,1.2-0.3,2.1-0.9,2.7c-0.6,0.7-1.4,1-2.4,1c-1,0-1.8-0.3-2.4-1c-0.6-0.7-0.9-1.6-0.9-2.7
			c0-1.2,0.3-2.1,0.9-2.8c0.6-0.7,1.4-1,2.4-1c1,0,1.8,0.3,2.4,1C456.9,64.2,457.2,65.1,457.2,66.2z M456,66.2
			c0-0.9-0.2-1.6-0.5-2.1c-0.4-0.4-0.9-0.7-1.5-0.7c-0.7,0-1.2,0.2-1.5,0.7c-0.4,0.4-0.5,1.1-0.5,2.1c0,0.9,0.2,1.6,0.5,2
			c0.4,0.5,0.9,0.7,1.5,0.7c0.6,0,1.1-0.2,1.5-0.7C455.8,67.8,456,67.2,456,66.2z"/>
		<path class="st2" d="M465.1,69.8h-1.2v-4.1c0-0.3,0-0.6-0.1-0.9c0-0.3-0.1-0.5-0.2-0.7c-0.1-0.2-0.3-0.3-0.5-0.4
			c-0.2-0.1-0.5-0.1-0.8-0.1c-0.3,0-0.7,0.1-1,0.2c-0.4,0.2-0.7,0.4-1,0.6v5.3h-1.2v-7.1h1.2v0.8c0.4-0.3,0.8-0.6,1.2-0.7
			c0.4-0.2,0.8-0.3,1.2-0.3c0.8,0,1.4,0.2,1.8,0.7c0.4,0.5,0.6,1.1,0.6,2V69.8z"/>
		<path class="st2" d="M473.1,69.8h-1.2v-0.7c-0.3,0.3-0.7,0.5-1.1,0.7c-0.4,0.2-0.8,0.2-1.2,0.2c-0.9,0-1.5-0.3-2-1
			c-0.5-0.7-0.7-1.6-0.7-2.7c0-0.6,0.1-1.1,0.3-1.6c0.2-0.5,0.4-0.9,0.7-1.2c0.3-0.3,0.6-0.6,1-0.7c0.4-0.2,0.8-0.3,1.2-0.3
			c0.4,0,0.7,0,1,0.1c0.3,0.1,0.6,0.2,0.9,0.4v-3.1h1.2V69.8z M471.9,68.1V64c-0.3-0.1-0.6-0.2-0.9-0.3c-0.3-0.1-0.5-0.1-0.8-0.1
			c-0.7,0-1.2,0.2-1.6,0.7c-0.4,0.5-0.6,1.1-0.6,2c0,0.8,0.1,1.5,0.4,1.9c0.3,0.4,0.8,0.7,1.4,0.7c0.3,0,0.7-0.1,1-0.2
			C471.3,68.5,471.6,68.3,471.9,68.1z"/>
		<path class="st2" d="M480.6,67.8c0,0.7-0.3,1.2-0.8,1.6c-0.5,0.4-1.3,0.6-2.2,0.6c-0.5,0-1-0.1-1.5-0.2c-0.4-0.1-0.8-0.3-1.1-0.4
			V68h0.1c0.4,0.3,0.8,0.5,1.3,0.7c0.5,0.2,0.9,0.3,1.3,0.3c0.5,0,0.9-0.1,1.2-0.3c0.3-0.2,0.4-0.4,0.4-0.8c0-0.3-0.1-0.5-0.2-0.6
			c-0.2-0.1-0.5-0.3-0.9-0.4c-0.2,0-0.4-0.1-0.7-0.1c-0.3-0.1-0.5-0.1-0.7-0.2c-0.6-0.2-1.1-0.4-1.3-0.7c-0.3-0.3-0.4-0.7-0.4-1.2
			c0-0.3,0.1-0.6,0.2-0.8c0.1-0.3,0.3-0.5,0.6-0.7c0.2-0.2,0.5-0.4,0.9-0.5c0.4-0.1,0.8-0.2,1.2-0.2c0.4,0,0.9,0.1,1.3,0.2
			c0.4,0.1,0.8,0.2,1.1,0.4v1.3h-0.1c-0.3-0.2-0.7-0.4-1.1-0.6c-0.4-0.2-0.9-0.2-1.3-0.2c-0.4,0-0.8,0.1-1.1,0.3
			c-0.3,0.2-0.5,0.4-0.5,0.7c0,0.3,0.1,0.5,0.3,0.7c0.2,0.1,0.5,0.3,0.9,0.4c0.2,0.1,0.5,0.1,0.7,0.2c0.3,0.1,0.5,0.1,0.7,0.1
			c0.6,0.1,1,0.3,1.3,0.7C480.4,66.8,480.6,67.2,480.6,67.8z"/>
	</g>
</g>
<g>
	<g>
		<path class="st2" d="M91.5,119.9h-3.8v-1H89v-7.6h-1.2v-1h3.8v1h-1.2v7.6h1.2V119.9z"/>
		<path class="st2" d="M107.8,119.9h-6.3v-9.5h6.3v1.1h-5v2.6h5v1.1h-5v3.5h5V119.9z"/>
		<path class="st2" d="M125.5,119.2c-0.5,0.2-1.1,0.4-1.7,0.6c-0.6,0.2-1.2,0.3-1.8,0.3c-0.7,0-1.4-0.1-2-0.3
			c-0.6-0.2-1.1-0.5-1.6-0.9c-0.4-0.4-0.8-0.9-1-1.5c-0.2-0.6-0.4-1.3-0.4-2.2c0-1.5,0.4-2.7,1.3-3.6c0.9-0.9,2.1-1.3,3.7-1.3
			c0.5,0,1.1,0.1,1.7,0.2c0.6,0.1,1.2,0.3,1.8,0.7v1.5h-0.1c-0.1-0.1-0.3-0.2-0.6-0.4c-0.3-0.2-0.5-0.3-0.7-0.4
			c-0.3-0.1-0.6-0.2-1-0.3c-0.4-0.1-0.8-0.1-1.3-0.1c-1.1,0-1.9,0.3-2.5,1c-0.6,0.7-0.9,1.6-0.9,2.8c0,1.2,0.3,2.2,1,2.9
			c0.6,0.7,1.5,1,2.6,1c0.4,0,0.8,0,1.2-0.1c0.4-0.1,0.8-0.2,1.1-0.3v-2.3h-2.5v-1.1h3.8V119.2z"/>
		<path class="st2" d="M142.7,116c0,0.7-0.1,1.3-0.2,1.8c-0.2,0.5-0.4,0.9-0.7,1.3c-0.3,0.3-0.7,0.6-1.1,0.7
			c-0.4,0.1-0.9,0.2-1.5,0.2c-0.6,0-1.1-0.1-1.6-0.2c-0.4-0.2-0.8-0.4-1.1-0.7c-0.3-0.3-0.6-0.8-0.7-1.3c-0.2-0.5-0.2-1.1-0.2-1.8
			v-5.7h1.3v5.7c0,0.5,0,0.9,0.1,1.2c0.1,0.3,0.2,0.6,0.4,0.8c0.2,0.3,0.4,0.5,0.8,0.6c0.3,0.1,0.7,0.2,1.2,0.2
			c0.5,0,0.8-0.1,1.2-0.2c0.3-0.1,0.6-0.3,0.8-0.6c0.2-0.2,0.3-0.5,0.4-0.8c0.1-0.3,0.1-0.7,0.1-1.2v-5.8h1.3V116z"/>
		<path class="st2" d="M159,119.9h-6v-9.5h1.3v8.4h4.7V119.9z"/>
		<path class="st2" d="M176.1,115.1c0,0.9-0.2,1.6-0.6,2.3c-0.4,0.7-0.9,1.2-1.5,1.6c-0.4,0.3-0.9,0.5-1.5,0.6
			c-0.5,0.1-1.2,0.2-2.1,0.2h-2.4v-9.5h2.4c0.9,0,1.7,0.1,2.2,0.2c0.5,0.1,1,0.3,1.4,0.6c0.6,0.4,1.2,0.9,1.5,1.6
			C175.9,113.4,176.1,114.2,176.1,115.1z M174.8,115.1c0-0.7-0.1-1.4-0.4-1.9c-0.3-0.5-0.6-0.9-1.2-1.2c-0.4-0.2-0.8-0.4-1.2-0.4
			c-0.4-0.1-0.9-0.1-1.5-0.1h-1.2v7.3h1.2c0.6,0,1.1,0,1.6-0.1c0.5-0.1,0.9-0.3,1.2-0.5c0.5-0.3,0.8-0.7,1.1-1.2
			C174.7,116.4,174.8,115.8,174.8,115.1z"/>
		<path class="st2" d="M189.6,109h-4.3v-1h4.3V109z M189.3,119.9h-3.8v-1h1.2v-7.6h-1.2v-1h3.8v1h-1.2v7.6h1.2V119.9z"/>
		<path class="st2" d="M202.8,117.4c0,0.8-0.3,1.5-0.8,1.9c-0.5,0.5-1.2,0.7-2,0.7c-0.2,0-0.5,0-0.8-0.1c-0.3,0-0.6-0.1-0.9-0.1
			v-1.2h0.1c0.2,0.1,0.4,0.1,0.6,0.2c0.3,0.1,0.5,0.1,0.8,0.1c0.4,0,0.7,0,0.9-0.1c0.2-0.1,0.4-0.2,0.5-0.4c0.1-0.2,0.2-0.4,0.2-0.6
			c0-0.2,0-0.5,0-0.9v-5.5h-2v-1h3.3V117.4z"/>
		<path class="st2" d="M220.3,116c0,0.7-0.1,1.3-0.2,1.8c-0.2,0.5-0.4,0.9-0.7,1.3c-0.3,0.3-0.7,0.6-1.1,0.7
			c-0.4,0.1-0.9,0.2-1.5,0.2c-0.6,0-1.1-0.1-1.6-0.2c-0.4-0.2-0.8-0.4-1.1-0.7c-0.3-0.3-0.6-0.8-0.7-1.3c-0.2-0.5-0.2-1.1-0.2-1.8
			v-5.7h1.3v5.7c0,0.5,0,0.9,0.1,1.2c0.1,0.3,0.2,0.6,0.4,0.8c0.2,0.3,0.4,0.5,0.8,0.6c0.3,0.1,0.7,0.2,1.2,0.2
			c0.5,0,0.8-0.1,1.2-0.2c0.3-0.1,0.6-0.3,0.8-0.6c0.2-0.2,0.3-0.5,0.4-0.8c0.1-0.3,0.1-0.7,0.1-1.2v-5.8h1.3V116z"/>
		<path class="st2" d="M239,119.9h-1.3v-8.2l-2.6,5.6h-0.8l-2.6-5.6v8.2h-1.2v-9.5h1.7l2.5,5.3l2.4-5.3h1.8V119.9z"/>
		<path class="st2" d="M256.2,117.1c0,0.4-0.1,0.7-0.3,1.1c-0.2,0.4-0.4,0.7-0.7,0.9c-0.3,0.3-0.7,0.5-1.2,0.6
			c-0.5,0.2-1,0.2-1.6,0.2c-0.7,0-1.3-0.1-1.8-0.2c-0.5-0.1-1.1-0.3-1.7-0.6v-1.6h0.1c0.5,0.4,1,0.7,1.7,0.9
			c0.6,0.2,1.2,0.3,1.8,0.3c0.8,0,1.4-0.1,1.8-0.4c0.4-0.3,0.7-0.7,0.7-1.2c0-0.4-0.1-0.7-0.3-0.9c-0.2-0.2-0.5-0.4-0.9-0.5
			c-0.3-0.1-0.7-0.2-1-0.2c-0.4-0.1-0.8-0.1-1.2-0.2c-0.8-0.2-1.5-0.5-1.9-0.9c-0.4-0.4-0.6-1-0.6-1.7c0-0.8,0.3-1.4,1-2
			c0.7-0.5,1.5-0.8,2.6-0.8c0.7,0,1.3,0.1,1.8,0.2c0.6,0.1,1.1,0.3,1.5,0.5v1.5h-0.1c-0.4-0.3-0.8-0.6-1.4-0.8
			c-0.6-0.2-1.2-0.3-1.8-0.3c-0.7,0-1.2,0.1-1.6,0.4c-0.4,0.3-0.6,0.6-0.6,1.1c0,0.4,0.1,0.7,0.3,0.9c0.2,0.2,0.6,0.4,1.1,0.5
			c0.3,0.1,0.7,0.1,1.2,0.2c0.5,0.1,0.9,0.2,1.3,0.3c0.7,0.2,1.2,0.5,1.6,0.8C256.1,115.9,256.2,116.5,256.2,117.1z"/>
		<path class="st2" d="M285.3,111.5h-3.4v8.4h-1.3v-8.4h-3.4v-1.1h8V111.5z"/>
		<path class="st2" d="M301.2,119.9h-1.3l-0.9-2.6h-4.1l-0.9,2.6h-1.3l3.5-9.5h1.7L301.2,119.9z M298.5,116.1l-1.7-4.7l-1.7,4.7
			H298.5z"/>
		<path class="st2" d="M317.5,110.4l-3.5,9.5h-1.7l-3.5-9.5h1.4l3,8.4l3-8.4H317.5z"/>
		<path class="st2" d="M334.3,119.9H333l-0.9-2.6h-4.1l-0.9,2.6h-1.3l3.5-9.5h1.7L334.3,119.9z M332.4,109h-4.7v-1h4.7V109z
			 M331.6,116.1l-1.7-4.7l-1.7,4.7H331.6z"/>
		<path class="st2" d="M363.3,119.9h-1.6l-4.5-8.5v8.5H356v-9.5h2l4.1,7.8v-7.8h1.2V119.9z"/>
		<path class="st2" d="M381.1,119.9h-1.3l-0.9-2.6h-4.1l-0.9,2.6h-1.3l3.5-9.5h1.7L381.1,119.9z M379.2,109h-4.7v-1h4.7V109z
			 M378.4,116.1l-1.7-4.7l-1.7,4.7H378.4z"/>
		<path class="st2" d="M398,119.9h-1.6l-3.8-4.2l-0.9,1v3.2h-1.3v-9.5h1.3v5l4.6-5h1.5l-4.2,4.5L398,119.9z"/>
		<path class="st2" d="M414.2,111.4c0.4,0.4,0.7,0.9,0.9,1.6c0.2,0.6,0.3,1.3,0.3,2.1s-0.1,1.5-0.3,2.1c-0.2,0.6-0.5,1.1-0.9,1.5
			c-0.4,0.4-0.9,0.8-1.4,1c-0.5,0.2-1.1,0.3-1.8,0.3c-0.7,0-1.3-0.1-1.8-0.3c-0.5-0.2-1-0.5-1.4-1c-0.4-0.4-0.7-0.9-0.9-1.5
			c-0.2-0.6-0.3-1.3-0.3-2.1c0-0.8,0.1-1.5,0.3-2.1c0.2-0.6,0.5-1.1,0.9-1.6c0.4-0.4,0.8-0.7,1.4-1c0.6-0.2,1.2-0.3,1.8-0.3
			c0.7,0,1.3,0.1,1.8,0.3C413.4,110.7,413.9,111,414.2,111.4z M414.1,115.1c0-1.2-0.3-2.2-0.8-2.9c-0.6-0.7-1.3-1-2.3-1
			c-1,0-1.7,0.3-2.3,1c-0.6,0.7-0.8,1.6-0.8,2.9c0,1.2,0.3,2.2,0.8,2.9c0.6,0.7,1.3,1,2.3,1c0.9,0,1.7-0.3,2.3-1
			C413.8,117.3,414.1,116.4,414.1,115.1z"/>
		<path class="st2" d="M431.7,111.5h-3.4v8.4h-1.3v-8.4h-3.4v-1.1h8V111.5z"/>
		<path class="st2" d="M448.1,119.9h-1.6l-4.5-8.5v8.5h-1.2v-9.5h2l4.1,7.8v-7.8h1.2V119.9z"/>
		<path class="st2" d="M464.7,119.9h-6.3v-9.5h6.3v1.1h-5v2.6h5v1.1h-5v3.5h5V119.9z M464,109h-4.7v-1h4.7V109z"/>
	</g>
</g>
<g>
	<rect x="251.4" y="12.8" class="st2" width="0.7" height="64.4"/>
</g>
<g>
	<rect x="13.9" y="98.7" class="st2" width="521.2" height="0.7"/>
</g>
<g>
	<g>
		<polygon class="st3" points="223,43.8 221.2,42.8 222,36.3 218.9,28.8 206.8,25.3 198.7,24.7 190.8,16.3 184,12.6 173.8,16.5 
			167.6,19.8 168,22.6 169.3,37.5 163.1,41.5 157,39.5 154.8,32.5 150.8,30.3 149.3,27.2 146.1,20.9 132.6,25.5 126,41.7 
			121.9,44.5 119.4,65.5 123.6,68.3 130.9,60 140.8,59.1 160.9,61.3 171.3,62.8 178.3,58.6 180.8,64.6 188.1,66.6 194.6,71.3 
			199.4,77 204.5,77 212.1,74.1 219.3,74.1 224.7,66.1 228.7,62.2 		"/>
		<path class="st4" d="M221.4,36.4l-0.8,6.4l-0.1,0.4l0.3,0.2l1.7,0.9l0.5,1.7c-1.7,1.2-4.3,2-7.2,2c-3.2,0.1-6.5-1.2-9.6-2.3
			c-1.9-0.7-3.9-1.5-5.8-1.9c-5.1-1.1-10.5,0.7-15.3,2.4c-0.4,0.2-0.9,0.3-1.3,0.5c-2.3,0.8-4.6,1.8-6.7,2.7
			c-3.3,1.5-6.8,3-10.5,3.8c-5.7,1.3-11.5,1.3-18.8,0c-0.9-0.2-1.9-0.4-2.8-0.6c-2.1-0.4-4.2-0.9-6.3-1c-3.5-0.1-6.6,0.1-9.4,0.8
			c-2.6,0.6-5.6,1.6-8.2,2.9l0.6-5.1c5.4-3.4,13.1-4.2,18-3.7c2.2,0.2,4.4,0.9,6.5,1.5c2.6,0.8,5.3,1.6,8,1.6c0,0,0.1,0,0.1,0
			c5.1,0,9.9-1.7,13.6-4.7c4.8-3.9,9.2-6.7,13.5-8.4c2.8-1.1,5.5-1.9,8.2-2.2c2.1-0.2,4.3,0,6.4,0.3c0.4,0,0.7,0.1,1.1,0.1
			c4.2,0.5,8.6,0.6,12.7-2.2c0.6-0.4,1.2-0.9,1.8-1.3c1.2-0.9,2.5-1.9,3.9-2.6l2.8,0.8L221.4,36.4z"/>
		<path class="st3" d="M122.4,44.8l3.9-2.7l0.1-0.1l0.1-0.2l6.5-15.9l12.8-4.4l2.9,5.9l1.5,3.1l0.1,0.2l0.2,0.1l3.8,2.1l2.1,6.7
			l0.1,0.3l0.3,0.1l6.1,2l0.3,0.1l0.2-0.2l6.2-4l0.3-0.2l0-0.3l-1.3-14.9l0,0l0,0l-0.3-2.3l5.8-3.1l9.9-3.8l6.4,3.5l7.9,8.4l0.2,0.2
			l0.2,0l8,0.5l8.5,2.5c-1.3,0.7-2.5,1.6-3.6,2.4c-0.6,0.4-1.2,0.9-1.8,1.3c-4,2.8-8.3,2.7-12.5,2.1c-0.4,0-0.7-0.1-1.1-0.1
			c-2.1-0.3-4.3-0.6-6.5-0.3c-2.7,0.3-5.5,1.1-8.3,2.2c-4.4,1.8-8.8,4.5-13.6,8.5c-3.6,3-8.4,4.6-13.4,4.6c-2.7,0-5.3-0.8-7.9-1.6
			c-2.2-0.6-4.4-1.3-6.6-1.5c-4.9-0.5-12.5,0.2-18,3.6L122.4,44.8z"/>
		<path class="st3" d="M224.3,65.7L224.3,65.7L224.3,65.7l-5.3,7.8h-6.8H212l-0.1,0l-7.5,2.9l-4.7,0l-4.7-5.5l0-0.1l-0.1,0l-6.5-4.7
			l-0.1-0.1l-0.1,0l-7-2l-2.4-5.7l-0.3-0.6l-0.6,0.3l-6.8,4.1L161,60.7h0l0,0l-20.1-2.2l-0.1,0l-0.1,0l-9.9,0.9l-0.2,0l-0.2,0.2
			l-6.9,7.9l-3.5-2.3l1.1-9.5c2.6-1.3,5.7-2.4,8.3-3c2.8-0.6,5.8-0.9,9.3-0.8c2.1,0.1,4.2,0.5,6.2,1c0.9,0.2,1.9,0.4,2.8,0.6
			c7.4,1.3,13.2,1.3,19,0c3.7-0.8,7.2-2.3,10.6-3.8c2.2-0.9,4.4-1.9,6.7-2.7c0.4-0.1,0.9-0.3,1.3-0.5c4.7-1.6,10.1-3.5,15.1-2.4
			c1.9,0.4,3.9,1.2,5.8,1.9c3.1,1.2,6.4,2.4,9.7,2.4c1.4,0,4.8-0.3,7.3-2l4.9,15.7L224.3,65.7z"/>
	</g>
	<g>
		<g>
			<path class="st3" d="M21.6,33.4h-1.6l-4.7-8.8v8.8h-1.2v-9.8h2l4.3,8v-8h1.2V33.4z"/>
			<path class="st3" d="M31.9,33.4h-1.4l-1-2.7h-4.3l-1,2.7H23l3.6-9.8h1.7L31.9,33.4z M29.2,29.5l-1.7-4.8l-1.7,4.8H29.2z"/>
			<path class="st3" d="M41,32.7c-0.2,0.1-0.5,0.2-0.7,0.3c-0.2,0.1-0.5,0.2-0.8,0.3c-0.3,0.1-0.6,0.2-0.9,0.2
				c-0.3,0.1-0.7,0.1-1,0.1c-0.7,0-1.4-0.1-1.9-0.3c-0.6-0.2-1.1-0.5-1.5-0.9c-0.4-0.4-0.8-1-1-1.6c-0.2-0.6-0.4-1.4-0.4-2.3
				c0-0.8,0.1-1.5,0.3-2.2c0.2-0.6,0.6-1.2,1-1.6c0.4-0.4,0.9-0.8,1.5-1c0.6-0.2,1.2-0.3,2-0.3c0.5,0,1.1,0.1,1.6,0.2
				c0.5,0.1,1.1,0.4,1.8,0.7v1.6h-0.1c-0.5-0.5-1.1-0.8-1.6-1c-0.5-0.2-1.1-0.3-1.7-0.3c-0.5,0-0.9,0.1-1.3,0.2
				c-0.4,0.2-0.8,0.4-1.1,0.8c-0.3,0.3-0.5,0.7-0.7,1.3c-0.2,0.5-0.3,1.1-0.3,1.7c0,0.7,0.1,1.3,0.3,1.8c0.2,0.5,0.4,0.9,0.7,1.2
				c0.3,0.3,0.7,0.6,1.1,0.7c0.4,0.2,0.8,0.2,1.3,0.2c0.6,0,1.2-0.1,1.8-0.3c0.6-0.2,1.1-0.5,1.5-1H41V32.7z"/>
			<path class="st3" d="M46.4,33.4h-3.9v-1h1.3v-7.8h-1.3v-1h3.9v1h-1.3v7.8h1.3V33.4z"/>
			<path class="st3" d="M55.9,24.7c0.4,0.4,0.7,1,0.9,1.6c0.2,0.6,0.3,1.4,0.3,2.2c0,0.8-0.1,1.5-0.3,2.2c-0.2,0.6-0.5,1.2-0.9,1.6
				c-0.4,0.4-0.9,0.8-1.4,1c-0.6,0.2-1.2,0.3-1.9,0.3c-0.7,0-1.3-0.1-1.9-0.3c-0.6-0.2-1-0.6-1.4-1c-0.4-0.4-0.7-1-0.9-1.6
				C48.1,30,48,29.3,48,28.5c0-0.8,0.1-1.5,0.3-2.2c0.2-0.6,0.5-1.2,0.9-1.6c0.4-0.4,0.9-0.8,1.4-1c0.6-0.2,1.2-0.3,1.9-0.3
				c0.7,0,1.3,0.1,1.9,0.3C55,23.9,55.5,24.2,55.9,24.7z M55.8,28.5c0-1.3-0.3-2.3-0.9-3c-0.6-0.7-1.4-1-2.3-1c-1,0-1.8,0.3-2.4,1
				c-0.6,0.7-0.9,1.7-0.9,3c0,1.3,0.3,2.3,0.9,3c0.6,0.7,1.4,1,2.3,1c1,0,1.8-0.3,2.3-1C55.5,30.7,55.8,29.8,55.8,28.5z"/>
			<path class="st3" d="M66.7,33.4h-1.6l-4.7-8.8v8.8h-1.2v-9.8h2l4.3,8v-8h1.2V33.4z"/>
			<path class="st3" d="M77.1,33.4h-1.4l-1-2.7h-4.3l-1,2.7h-1.3l3.6-9.8h1.7L77.1,33.4z M75.1,22.2h-4.9v-1h4.9V22.2z M74.4,29.5
				l-1.7-4.8l-1.7,4.8H74.4z"/>
			<path class="st3" d="M84.8,33.4h-6.2v-9.8h1.3v8.7h4.9V33.4z"/>
			<path class="st3" d="M93.9,33.4h-1.4l-1-2.7h-4.3l-1,2.7H85l3.6-9.8h1.7L93.9,33.4z M91.1,29.5l-1.7-4.8l-1.7,4.8H91.1z"/>
			<path class="st3" d="M98.9,33.4H95v-1h1.3v-7.8H95v-1h3.9v1h-1.3v7.8h1.3V33.4z"/>
			<path class="st3" d="M108.3,30.6c0,0.4-0.1,0.8-0.3,1.1c-0.2,0.4-0.4,0.7-0.8,1c-0.4,0.3-0.8,0.5-1.2,0.7c-0.5,0.2-1,0.2-1.7,0.2
				c-0.7,0-1.3-0.1-1.9-0.2c-0.6-0.1-1.1-0.3-1.7-0.6v-1.6h0.1c0.5,0.4,1.1,0.7,1.7,1c0.7,0.2,1.3,0.3,1.8,0.3
				c0.8,0,1.4-0.2,1.9-0.5c0.5-0.3,0.7-0.7,0.7-1.2c0-0.4-0.1-0.8-0.3-1c-0.2-0.2-0.5-0.4-1-0.5c-0.3-0.1-0.7-0.2-1.1-0.2
				c-0.4-0.1-0.8-0.1-1.2-0.2c-0.9-0.2-1.5-0.5-1.9-0.9c-0.4-0.4-0.6-1-0.6-1.7c0-0.8,0.3-1.5,1-2c0.7-0.5,1.6-0.8,2.7-0.8
				c0.7,0,1.3,0.1,1.9,0.2c0.6,0.1,1.1,0.3,1.5,0.5v1.5h-0.1c-0.4-0.3-0.9-0.6-1.5-0.8c-0.6-0.2-1.2-0.3-1.9-0.3
				c-0.7,0-1.3,0.1-1.7,0.4c-0.4,0.3-0.6,0.7-0.6,1.1c0,0.4,0.1,0.7,0.3,1c0.2,0.2,0.6,0.4,1.1,0.5c0.3,0.1,0.7,0.1,1.2,0.2
				c0.5,0.1,1,0.2,1.3,0.3c0.7,0.2,1.3,0.5,1.7,0.9C108.1,29.3,108.3,29.9,108.3,30.6z"/>
		</g>
		<g>
			<path class="st3" d="M23,49.6h-1.4l-1-2.7h-4.3l-1,2.7h-1.3l3.6-9.8h1.7L23,49.6z M20.2,45.8l-1.7-4.8l-1.7,4.8H20.2z"/>
			<path class="st3" d="M30.7,40.9h-3.5v8.7h-1.3v-8.7h-3.5v-1.2h8.3V40.9z"/>
			<path class="st3" d="M38.6,40.9H35v8.7h-1.3v-8.7h-3.5v-1.2h8.3V40.9z"/>
			<path class="st3" d="M43.6,38.4h-4.4v-1h4.4V38.4z M43.4,49.6h-3.9v-1h1.3v-7.8h-1.3v-1h3.9v1h-1.3v7.8h1.3V49.6z"/>
			<path class="st3" d="M52.7,46.8c0,0.4-0.1,0.8-0.3,1.1c-0.2,0.4-0.4,0.7-0.7,1c-0.4,0.3-0.8,0.5-1.2,0.7c-0.5,0.2-1,0.2-1.7,0.2
				c-0.7,0-1.3-0.1-1.9-0.2c-0.6-0.1-1.1-0.3-1.7-0.6v-1.6h0.1c0.5,0.4,1.1,0.7,1.7,1c0.7,0.2,1.3,0.3,1.8,0.3
				c0.8,0,1.4-0.2,1.9-0.5c0.5-0.3,0.7-0.7,0.7-1.2c0-0.4-0.1-0.8-0.3-1c-0.2-0.2-0.5-0.4-1-0.5c-0.3-0.1-0.7-0.2-1.1-0.2
				c-0.4-0.1-0.8-0.1-1.2-0.2c-0.9-0.2-1.5-0.5-1.9-0.9c-0.4-0.4-0.6-1-0.6-1.7c0-0.8,0.3-1.5,1-2c0.7-0.5,1.6-0.8,2.7-0.8
				c0.7,0,1.3,0.1,1.9,0.2c0.6,0.1,1.1,0.3,1.5,0.5v1.5h-0.1c-0.4-0.3-0.9-0.6-1.5-0.8c-0.6-0.2-1.2-0.3-1.9-0.3
				c-0.7,0-1.3,0.1-1.7,0.4c-0.4,0.3-0.6,0.7-0.6,1.1c0,0.4,0.1,0.7,0.3,1c0.2,0.2,0.6,0.4,1.1,0.5c0.3,0.1,0.7,0.1,1.2,0.2
				c0.5,0.1,1,0.2,1.3,0.3c0.7,0.2,1.3,0.5,1.7,0.9C52.5,45.6,52.7,46.1,52.7,46.8z"/>
			<path class="st3" d="M61.9,40.9h-3.5v8.7H57v-8.7h-3.5v-1.2h8.3V40.9z"/>
			<path class="st3" d="M66.9,38.4h-4.4v-1h4.4V38.4z M66.6,49.6h-3.9v-1H64v-7.8h-1.3v-1h3.9v1h-1.3v7.8h1.3V49.6z"/>
			<path class="st3" d="M76.3,46.6c0,0.5-0.1,0.9-0.3,1.3c-0.2,0.4-0.4,0.7-0.7,0.9c-0.4,0.3-0.8,0.5-1.2,0.6
				c-0.4,0.1-1,0.2-1.7,0.2h-3.5v-9.8h2.9c0.7,0,1.3,0,1.6,0.1c0.4,0.1,0.7,0.2,1,0.3c0.4,0.2,0.6,0.4,0.8,0.7
				c0.2,0.3,0.2,0.7,0.2,1.1c0,0.5-0.1,0.9-0.4,1.2c-0.2,0.3-0.6,0.6-1,0.8V44c0.7,0.1,1.2,0.4,1.6,0.9
				C76.1,45.3,76.3,45.9,76.3,46.6z M74.1,42.2c0-0.2,0-0.4-0.1-0.6c-0.1-0.2-0.2-0.3-0.4-0.4c-0.2-0.1-0.5-0.2-0.8-0.2
				c-0.3,0-0.7,0-1.1,0h-1.6v2.8h1.7c0.4,0,0.7,0,1-0.1c0.2,0,0.5-0.1,0.7-0.3c0.2-0.1,0.4-0.3,0.4-0.5
				C74.1,42.7,74.1,42.4,74.1,42.2z M74.9,46.6c0-0.4-0.1-0.7-0.2-0.9c-0.1-0.2-0.3-0.4-0.6-0.6c-0.2-0.1-0.5-0.2-0.8-0.2
				c-0.3,0-0.7,0-1.1,0h-2.1v3.7h1.7c0.6,0,1,0,1.4-0.1c0.4-0.1,0.7-0.2,0.9-0.3c0.2-0.2,0.4-0.4,0.5-0.6
				C74.9,47.3,74.9,47,74.9,46.6z"/>
			<path class="st3" d="M85.9,49.6h-1.4l-1-2.7h-4.3l-1,2.7H77l3.6-9.8h1.7L85.9,49.6z M83.1,45.8l-1.7-4.8l-1.7,4.8H83.1z"/>
			<path class="st3" d="M94.5,46.8c0,0.4-0.1,0.8-0.3,1.1c-0.2,0.4-0.4,0.7-0.7,1c-0.4,0.3-0.8,0.5-1.2,0.7c-0.5,0.2-1,0.2-1.7,0.2
				c-0.7,0-1.3-0.1-1.9-0.2c-0.6-0.1-1.1-0.3-1.7-0.6v-1.6H87c0.5,0.4,1.1,0.7,1.7,1c0.7,0.2,1.3,0.3,1.8,0.3c0.8,0,1.4-0.2,1.9-0.5
				c0.5-0.3,0.7-0.7,0.7-1.2c0-0.4-0.1-0.8-0.3-1c-0.2-0.2-0.5-0.4-1-0.5c-0.3-0.1-0.7-0.2-1.1-0.2c-0.4-0.1-0.8-0.1-1.2-0.2
				c-0.9-0.2-1.5-0.5-1.9-0.9c-0.4-0.4-0.6-1-0.6-1.7c0-0.8,0.3-1.5,1-2c0.7-0.5,1.6-0.8,2.7-0.8c0.7,0,1.3,0.1,1.9,0.2
				c0.6,0.1,1.1,0.3,1.5,0.5v1.5H94c-0.4-0.3-0.9-0.6-1.5-0.8c-0.6-0.2-1.2-0.3-1.9-0.3c-0.7,0-1.3,0.1-1.7,0.4
				c-0.4,0.3-0.6,0.7-0.6,1.1c0,0.4,0.1,0.7,0.3,1c0.2,0.2,0.6,0.4,1.1,0.5c0.3,0.1,0.7,0.1,1.2,0.2c0.5,0.1,1,0.2,1.3,0.3
				c0.7,0.2,1.3,0.5,1.7,0.9C94.3,45.6,94.5,46.1,94.5,46.8z"/>
		</g>
		<g>
			<path class="st3" d="M20.5,59c0,0.4-0.1,0.8-0.2,1.2c-0.2,0.4-0.4,0.7-0.6,1c-0.3,0.3-0.7,0.6-1.2,0.8c-0.5,0.2-1,0.3-1.8,0.3
				h-1.3v3.7h-1.3V56h2.7c0.6,0,1.1,0,1.5,0.1c0.4,0.1,0.8,0.3,1.1,0.5c0.4,0.3,0.7,0.6,0.9,0.9C20.4,58,20.5,58.4,20.5,59z
				 M19.1,59c0-0.3-0.1-0.6-0.2-0.9c-0.1-0.3-0.3-0.5-0.5-0.6c-0.2-0.1-0.5-0.2-0.7-0.3c-0.3-0.1-0.6-0.1-1-0.1h-1.3v3.9h1.1
				c0.5,0,1,0,1.3-0.1c0.3-0.1,0.6-0.2,0.8-0.5c0.2-0.2,0.4-0.4,0.4-0.7C19.1,59.6,19.1,59.3,19.1,59z"/>
			<path class="st3" d="M28.4,65.9h-6.2V56h1.3v8.7h4.9V65.9z"/>
			<path class="st3" d="M37.5,65.9h-1.4l-1-2.7h-4.3l-1,2.7h-1.3l3.6-9.8h1.7L37.5,65.9z M35.5,54.6h-4.9v-1h4.9V54.6z M34.7,62
				L33,57.2L31.3,62H34.7z"/>
			<path class="st3" d="M46.5,65.9h-1.6l-4.7-8.8v8.8H39V56h2l4.3,8v-8h1.2V65.9z"/>
			<path class="st3" d="M56.3,63.1c0,0.4-0.1,0.8-0.3,1.1c-0.2,0.4-0.4,0.7-0.7,1c-0.4,0.3-0.8,0.5-1.2,0.7C53.6,66,53,66,52.3,66
				c-0.7,0-1.3-0.1-1.9-0.2c-0.6-0.1-1.1-0.3-1.7-0.6v-1.6h0.1c0.5,0.4,1.1,0.7,1.7,1c0.7,0.2,1.3,0.3,1.8,0.3
				c0.8,0,1.4-0.2,1.9-0.5c0.5-0.3,0.7-0.7,0.7-1.2c0-0.4-0.1-0.8-0.3-1c-0.2-0.2-0.5-0.4-1-0.5c-0.3-0.1-0.7-0.2-1.1-0.2
				c-0.4-0.1-0.8-0.1-1.2-0.2c-0.9-0.2-1.5-0.5-1.9-0.9c-0.4-0.4-0.6-1-0.6-1.7c0-0.8,0.3-1.5,1-2c0.7-0.5,1.6-0.8,2.7-0.8
				c0.7,0,1.3,0.1,1.9,0.2c0.6,0.1,1.1,0.3,1.5,0.5v1.5h-0.1c-0.4-0.3-0.9-0.6-1.5-0.8c-0.6-0.2-1.2-0.3-1.9-0.3
				c-0.7,0-1.3,0.1-1.7,0.4c-0.4,0.3-0.6,0.7-0.6,1.1c0,0.4,0.1,0.7,0.3,1c0.2,0.2,0.6,0.4,1.1,0.5c0.3,0.1,0.7,0.1,1.2,0.2
				c0.5,0.1,1,0.2,1.3,0.3c0.7,0.2,1.3,0.5,1.7,0.9C56.1,61.8,56.3,62.4,56.3,63.1z"/>
			<path class="st3" d="M69.5,65.9h-6.7v-1.4c0.5-0.4,0.9-0.8,1.4-1.2c0.5-0.4,0.9-0.8,1.3-1.2c0.8-0.8,1.4-1.5,1.7-2
				c0.3-0.5,0.5-1,0.5-1.6c0-0.5-0.2-0.9-0.5-1.2c-0.3-0.3-0.8-0.4-1.4-0.4c-0.4,0-0.8,0.1-1.3,0.2c-0.5,0.1-0.9,0.4-1.4,0.6h-0.1
				v-1.4c0.3-0.2,0.7-0.3,1.3-0.4c0.5-0.1,1-0.2,1.5-0.2c1,0,1.8,0.2,2.4,0.7c0.6,0.5,0.9,1.1,0.9,2c0,0.4,0,0.7-0.1,1
				c-0.1,0.3-0.2,0.6-0.4,0.9c-0.2,0.3-0.4,0.5-0.6,0.8c-0.2,0.3-0.5,0.6-0.8,0.9c-0.5,0.5-1,0.9-1.5,1.3c-0.5,0.4-1,0.8-1.4,1.2
				h5.3V65.9z"/>
			<path class="st3" d="M78.1,60.9c0,1.8-0.3,3.1-0.8,3.9c-0.6,0.8-1.4,1.2-2.6,1.2c-1.2,0-2-0.4-2.6-1.3c-0.5-0.8-0.8-2.1-0.8-3.9
				c0-1.8,0.3-3,0.8-3.9c0.6-0.8,1.4-1.3,2.6-1.3c1.2,0,2,0.4,2.6,1.3C77.9,57.9,78.1,59.2,78.1,60.9z M76.4,63.9
				c0.2-0.4,0.3-0.8,0.3-1.3c0.1-0.5,0.1-1.1,0.1-1.7c0-0.7,0-1.3-0.1-1.7c-0.1-0.5-0.2-0.9-0.3-1.3c-0.2-0.3-0.4-0.6-0.6-0.8
				c-0.3-0.2-0.6-0.3-1-0.3c-0.4,0-0.8,0.1-1,0.3c-0.3,0.2-0.5,0.4-0.6,0.8c-0.2,0.3-0.3,0.8-0.3,1.3c-0.1,0.5-0.1,1.1-0.1,1.7
				c0,0.7,0,1.3,0.1,1.7c0,0.5,0.2,0.9,0.3,1.2c0.1,0.3,0.4,0.6,0.6,0.8c0.3,0.2,0.6,0.3,1.1,0.3c0.4,0,0.8-0.1,1-0.3
				C76,64.5,76.2,64.3,76.4,63.9z"/>
			<path class="st3" d="M86.8,65.9h-6.7v-1.4c0.5-0.4,0.9-0.8,1.4-1.2c0.5-0.4,0.9-0.8,1.3-1.2c0.8-0.8,1.4-1.5,1.7-2
				c0.3-0.5,0.5-1,0.5-1.6c0-0.5-0.2-0.9-0.5-1.2c-0.3-0.3-0.8-0.4-1.4-0.4c-0.4,0-0.8,0.1-1.3,0.2c-0.5,0.1-0.9,0.4-1.4,0.6h-0.1
				v-1.4c0.3-0.2,0.7-0.3,1.3-0.4c0.5-0.1,1-0.2,1.5-0.2c1,0,1.8,0.2,2.4,0.7c0.6,0.5,0.9,1.1,0.9,2c0,0.4,0,0.7-0.1,1
				c-0.1,0.3-0.2,0.6-0.4,0.9c-0.2,0.3-0.4,0.5-0.6,0.8c-0.2,0.3-0.5,0.6-0.8,0.9c-0.5,0.5-1,0.9-1.5,1.3c-0.5,0.4-1,0.8-1.4,1.2
				h5.3V65.9z"/>
			<path class="st3" d="M95.4,60.9c0,1.8-0.3,3.1-0.8,3.9c-0.6,0.8-1.4,1.2-2.6,1.2c-1.2,0-2-0.4-2.6-1.3c-0.5-0.8-0.8-2.1-0.8-3.9
				c0-1.8,0.3-3,0.8-3.9c0.5-0.8,1.4-1.3,2.6-1.3c1.2,0,2,0.4,2.6,1.3C95.1,57.9,95.4,59.2,95.4,60.9z M93.6,63.9
				c0.2-0.4,0.3-0.8,0.3-1.3c0.1-0.5,0.1-1.1,0.1-1.7c0-0.7,0-1.3-0.1-1.7c-0.1-0.5-0.2-0.9-0.3-1.3c-0.2-0.3-0.4-0.6-0.6-0.8
				c-0.3-0.2-0.6-0.3-1-0.3c-0.4,0-0.8,0.1-1,0.3c-0.3,0.2-0.5,0.4-0.6,0.8c-0.2,0.3-0.3,0.8-0.3,1.3c-0.1,0.5-0.1,1.1-0.1,1.7
				c0,0.7,0,1.3,0.1,1.7c0,0.5,0.2,0.9,0.3,1.2c0.1,0.3,0.3,0.6,0.6,0.8c0.3,0.2,0.6,0.3,1.1,0.3c0.4,0,0.8-0.1,1-0.3
				C93.3,64.5,93.5,64.3,93.6,63.9z"/>
		</g>
	</g>
</g>
</svg>
